<svg xmlns="http://www.w3.org/2000/svg" xml:space="preserve" id="svg840" x="0" y="0" version="1.1" viewBox="0 0 64 64"><style id="style824" type="text/css">.st1{opacity:.2}.st2{fill:#231f20}.st3{fill:#f5cf87}</style><g id="Layer_1"><g id="g828"><circle id="circle826" cx="32" cy="32" r="32" fill="#77b3d4" fill-opacity="1"/></g></g><path id="path1642-9" fill="#231f20" fill-opacity="1" stroke-width=".319" d="m14.388 14 3.206 35.99L31.98 54l14.424-4.025L49.612 14Zm28.564 8.245-1.067 11.99.003.064-.005.15v-.002l-.758 8.383-.083.745-9.042 2.5-.007.007-9.026-2.515-.611-6.93h4.426l.314 3.523L32 41.49l-.001.002 4.923-1.349.52-5.739H27.152l-.088-.97-.201-2.273-.106-1.22h11.079l.403-4.464H21.364l-.088-.97-.201-2.273-.106-1.22h22.088z" opacity=".2"/><path id="path1642" fill="#4f5d73" fill-opacity="1" stroke-width=".319" d="m14.388 12 3.206 35.99L31.98 52l14.424-4.025L49.612 12Zm28.564 8.245-1.067 11.99.003.064-.005.15v-.002l-.758 8.383-.083.745-9.042 2.5-.007.007-9.026-2.515-.611-6.93h4.426l.314 3.523L32 39.49l-.001.002 4.923-1.349.52-5.739H27.152l-.088-.97-.201-2.273-.106-1.22h11.079l.403-4.464H21.364l-.088-.97-.201-2.273-.106-1.22h22.088z"/></svg>