<svg xmlns="http://www.w3.org/2000/svg" xml:space="preserve" id="svg840" x="0" y="0" version="1.1" viewBox="0 0 64 64"><style id="style824" type="text/css">.st1{opacity:.2}.st2{fill:#231f20}.st3{fill:#f5cf87}</style><g id="Layer_1"><g id="g828"><circle id="circle826" cx="32" cy="32" r="32" fill="#c75c5c"/></g><path id="path1086-1" fill="#231f20" fill-opacity="1" fill-rule="evenodd" stroke-width=".479" d="M31.593 9.095c-.09.052-.47.597-.844 1.21-.938 1.538-.949 1.539-2.21.214-.82-.862-1.018-1.02-1.282-1.018-.172 0-.389.059-.483.13-.093.07-.358.63-.588 1.243-.526 1.406-.551 1.451-.843 1.507-.18.034-.525-.158-1.354-.753-.612-.44-1.212-.799-1.334-.799-.504 0-.647.276-.887 1.72-.305 1.834-.295 1.828-1.95 1.076-.669-.303-1.303-.55-1.41-.55-.106 0-.309.114-.449.254-.255.255-.255.256-.186 1.659l.07 1.404-.266.142c-.235.126-.397.11-1.44-.136-1.361-.32-1.649-.312-1.924.059l-.202.27.27 1.159.319 1.362a.547.547 0 0 1-.102.398c-.136.175-.28.191-1.54.172-2.132-.034-2.253.15-1.372 2.07.28.61.51 1.164.51 1.23 0 .351-.28.48-1.484.675-.673.11-1.258.2-1.3.2-.042 0-.169.091-.28.203-.367.366-.263.71.568 1.881 1.034 1.459 1.032 1.464-.677 2.118-1.944.742-1.983.926-.503 2.328 1.378 1.306 1.38 1.287-.18 2.267-1.183.742-1.2.76-1.231 1.162-.036.489-.028.497 1.384 1.359 1.395.851 1.395.877.025 2.172-1.473 1.392-1.427 1.595.518 2.328 1.7.64 1.702.648.666 2.107-.588.827-.775 1.172-.775 1.427 0 .478.249.6 1.736.85 1.253.21 1.532.334 1.532.68 0 .07-.23.63-.51 1.24-.875 1.903-.775 2.061 1.294 2.061 1.927 0 1.876-.059 1.46 1.677-.312 1.31-.317 1.56-.034 1.842.217.218.626.193 1.905-.112.977-.233 1.148-.25 1.375-.129l.258.139-.07 1.403c-.07 1.404-.069 1.405.186 1.66.14.14.346.255.456.255.11 0 .744-.247 1.409-.549 1.65-.748 1.64-.755 1.944 1.074.241 1.45.382 1.72.897 1.72.128 0 .716-.345 1.306-.766 1.038-.74 1.307-.855 1.583-.68.072.045.348.653.615 1.35.392 1.026.536 1.293.754 1.397.416.199.673.04 1.65-1.024 1.179-1.283 1.227-1.277 2.19.282 1.063 1.721 1.338 1.717 2.429-.035.939-1.51.928-1.508 2.198-.184.843.88 1.022 1.02 1.307 1.02.181 0 .398-.068.48-.151.084-.084.36-.698.614-1.366.254-.668.516-1.25.584-1.293.269-.17.547-.05 1.583.684.61.433 1.184.765 1.32.765.507 0 .69-.359.9-1.77.18-1.205.217-1.32.454-1.44.233-.118.373-.078 1.467.418.665.3 1.299.548 1.409.548.11 0 .319-.118.463-.263l.262-.262-.072-1.346c-.069-1.286-.063-1.355.143-1.54.211-.191.233-.19 1.413.079 1.43.326 1.696.335 1.965.066.262-.262.26-.32-.1-1.832-.402-1.697-.456-1.637 1.479-1.637 1.319 0 1.466-.019 1.634-.204.28-.31.214-.665-.35-1.867-.285-.605-.517-1.156-.515-1.224.01-.357.291-.48 1.59-.69.795-.129 1.39-.278 1.497-.375.361-.326.228-.75-.596-1.904-1.032-1.446-1.028-1.46.626-2.07 1.98-.728 2.036-.971.555-2.378-1.373-1.303-1.374-1.295.13-2.218 1.817-1.114 1.82-1.365.032-2.474-1.538-.953-1.537-.94-.159-2.248 1.479-1.403 1.439-1.587-.506-2.33-1.716-.655-1.72-.671-.678-2.101.62-.852.775-1.134.775-1.426 0-.51-.23-.624-1.735-.867-1.257-.203-1.534-.326-1.534-.684 0-.068.23-.614.51-1.216.551-1.177.628-1.648.317-1.93-.167-.15-.391-.172-1.59-.153-1.255.021-1.415.004-1.589-.17-.19-.192-.188-.218.109-1.456.364-1.516.365-1.553.066-1.834-.304-.285-.493-.28-1.887.048-1.015.239-1.183.255-1.414.131l-.262-.14.072-1.4.073-1.399-.262-.261c-.144-.144-.348-.262-.455-.262-.106 0-.736.25-1.4.556-1.11.51-1.23.544-1.47.419-.239-.126-.279-.25-.483-1.496-.236-1.443-.382-1.724-.895-1.724-.121 0-.724.362-1.34.803-1.01.725-1.145.794-1.397.706-.208-.073-.33-.23-.477-.625l-.467-1.24c-.298-.793-.464-.97-.91-.97-.25 0-.475.179-1.283 1.017-1.27 1.318-1.275 1.318-2.209-.213-.373-.612-.764-1.158-.868-1.213a.741.741 0 0 0-.723 0m1.158 4.61c1.106.786.518 2.636-.84 2.636-1.316 0-1.979-1.585-1.039-2.485.531-.508 1.292-.57 1.879-.152m-1.392 4.886c.726.275 1.024.11 2.68-1.485l1.244-1.199.527.07c1.651.22 4.937 1.66 6.825 2.995 1.734 1.226 4.04 3.724 5.022 5.442l.21.367-.93 2.095c-.513 1.153-.932 2.216-.932 2.365 0 .343.225.886.442 1.065.091.076.96.494 1.93.929l1.765.791.07.448c.089.584.1 2.019.02 2.426l-.064.319H49.16c-1.168 0-1.078-.105-1.141 1.327-.046 1.037-.297 1.61-.868 1.982-.93.606-2.465.496-3.116-.223-.1-.11-.295-.666-.432-1.235-.403-1.66-.944-2.594-2.03-3.501-.344-.287-.625-.554-.625-.595 0-.04.378-.357.84-.704 1.68-1.266 2.646-2.739 2.752-4.198.203-2.784-2.017-5.378-5.319-6.219-.782-.2-1.117-.205-10.8-.205-5.497 0-9.994-.036-9.994-.08 0-.103 1.221-1.287 1.94-1.881 1.977-1.632 4.543-2.916 7.201-3.602l.92-.238 1.306 1.323c.718.728 1.423 1.367 1.564 1.42m-16.446 8.513c.602.394.848 1.383.493 1.978-.55.92-1.942.959-2.492.069-.8-1.293.74-2.87 1.999-2.047m35.453.05c1.574.96.355 3.318-1.33 2.574a1.426 1.426 0 0 1-.062-2.595c.46-.234.987-.225 1.392.021m-30.815 5.872v5.867H14.36l-.206-.892c-.405-1.758-.576-3.577-.474-5.066l.072-1.047 1.784-.8c1.12-.5 1.84-.883 1.933-1.025.406-.618.367-1.06-.202-2.317L17 27.156h2.551v5.867M34.5 27.411c1.111.289 1.699.877 1.7 1.701.001.605-.299.985-1.043 1.32-.528.239-.611.245-3.935.277l-3.396.033v-3.484h3.042c2.377 0 3.172.033 3.632.153m-1.147 8.42c.55.152 1.202.63 1.536 1.128.351.522.557 1.201 1.043 3.451.411 1.902.675 2.524 1.415 3.333.917 1.002.705.963 5.285.963 2.193 0 3.987.035 3.987.078 0 .077-1.51 1.861-1.576 1.861-.018 0-.807-.165-1.753-.366-2.67-.57-2.766-.503-3.38 2.356l-.393 1.836-.356.176c-.594.292-2.523.895-3.523 1.1-1.653.34-3.452.455-5.033.322-2.695-.229-6.263-1.273-6.403-1.875a252.7 252.7 0 0 1-.398-1.838c-.19-.883-.42-1.72-.512-1.86-.442-.674-.907-.716-2.951-.264-.774.171-1.45.311-1.502.311-.097 0-1.534-1.66-1.534-1.772 0-.034 3.413-.075 7.584-.09l7.584-.025.027-2.692c.02-1.9-.007-2.733-.09-2.831-.091-.111-.58-.14-2.35-.14h-2.234v-3.266h2.579c1.418.001 2.745.047 2.948.103M21.666 48.07c1.206.734.627 2.658-.799 2.656-1.463 0-2.005-1.907-.758-2.666.412-.251 1.136-.246 1.557.01m22.084.08c.59.433.788 1.334.421 1.934-.961 1.576-3.367.323-2.563-1.335.395-.815 1.444-1.109 2.142-.599" opacity=".208"/><path id="path1086" fill="#f5cf87" fill-opacity="1" fill-rule="evenodd" stroke-width=".479" d="M31.593 7.095c-.09.052-.47.597-.844 1.21-.938 1.538-.949 1.539-2.21.214-.82-.862-1.018-1.02-1.282-1.018-.172 0-.389.059-.483.13-.093.07-.358.63-.588 1.243-.526 1.406-.551 1.451-.843 1.507-.18.034-.525-.158-1.354-.753-.612-.44-1.212-.799-1.334-.799-.504 0-.647.276-.887 1.72-.305 1.834-.295 1.828-1.95 1.076-.669-.303-1.303-.55-1.41-.55-.106 0-.309.114-.449.254-.255.255-.255.256-.186 1.659l.07 1.404-.266.142c-.235.126-.397.11-1.44-.136-1.361-.32-1.649-.312-1.924.059l-.202.27.27 1.159.319 1.362a.547.547 0 0 1-.102.398c-.136.175-.28.191-1.54.172-2.132-.034-2.253.15-1.372 2.07.28.61.51 1.164.51 1.23 0 .351-.28.48-1.484.675-.673.11-1.258.2-1.3.2-.042 0-.169.091-.28.203-.367.366-.263.71.568 1.881 1.034 1.459 1.032 1.464-.677 2.118-1.944.742-1.983.926-.503 2.328 1.378 1.306 1.38 1.287-.18 2.267-1.183.742-1.2.76-1.231 1.162-.036.489-.028.497 1.384 1.359 1.395.851 1.395.877.025 2.172-1.473 1.392-1.427 1.595.518 2.328 1.7.64 1.702.648.666 2.107-.588.827-.775 1.172-.775 1.427 0 .478.249.6 1.736.85 1.253.21 1.532.334 1.532.68 0 .07-.23.63-.51 1.24-.875 1.903-.775 2.061 1.294 2.061 1.927 0 1.876-.059 1.46 1.677-.312 1.31-.317 1.56-.034 1.842.217.218.626.193 1.905-.112.977-.233 1.148-.25 1.375-.129l.258.139-.07 1.403c-.07 1.404-.069 1.405.186 1.66.14.14.346.255.456.255.11 0 .744-.247 1.409-.549 1.65-.748 1.64-.755 1.944 1.074.241 1.45.382 1.72.897 1.72.128 0 .716-.345 1.306-.766 1.038-.74 1.307-.855 1.583-.68.072.045.348.653.615 1.35.392 1.026.536 1.293.754 1.397.416.199.673.04 1.65-1.024 1.179-1.283 1.227-1.277 2.19.282 1.063 1.721 1.338 1.717 2.429-.035.939-1.51.928-1.508 2.198-.184.843.88 1.022 1.02 1.307 1.02.181 0 .398-.068.48-.151.084-.084.36-.698.614-1.366.254-.668.516-1.25.584-1.293.269-.17.547-.05 1.583.684.61.433 1.184.765 1.32.765.507 0 .69-.359.9-1.77.18-1.205.217-1.32.454-1.44.233-.118.373-.078 1.467.418.665.3 1.299.548 1.409.548.11 0 .319-.118.463-.263l.262-.262-.072-1.346c-.069-1.286-.063-1.355.143-1.54.211-.191.233-.19 1.413.079 1.43.326 1.696.335 1.965.066.262-.262.26-.32-.1-1.832-.402-1.697-.456-1.637 1.479-1.637 1.319 0 1.466-.019 1.634-.204.28-.31.214-.665-.35-1.867-.285-.605-.517-1.156-.515-1.224.01-.357.291-.48 1.59-.69.795-.129 1.39-.278 1.497-.375.361-.326.228-.75-.596-1.904-1.032-1.446-1.028-1.46.626-2.07 1.98-.728 2.036-.971.555-2.378-1.373-1.303-1.374-1.295.13-2.218 1.817-1.114 1.82-1.365.032-2.474-1.538-.953-1.537-.94-.159-2.248 1.479-1.403 1.439-1.587-.506-2.33-1.716-.655-1.72-.671-.678-2.101.62-.852.775-1.134.775-1.426 0-.51-.23-.624-1.735-.867-1.257-.203-1.534-.326-1.534-.684 0-.068.23-.614.51-1.216.551-1.177.628-1.648.317-1.93-.167-.15-.391-.172-1.59-.153-1.255.021-1.415.004-1.589-.17-.19-.192-.188-.218.109-1.456.364-1.516.365-1.553.066-1.834-.304-.285-.493-.28-1.887.048-1.015.239-1.183.255-1.414.131l-.262-.14.072-1.4.073-1.399-.262-.261c-.144-.144-.348-.262-.455-.262-.105 0-.736.25-1.4.556-1.11.51-1.23.544-1.47.419-.239-.126-.279-.25-.483-1.496-.236-1.443-.382-1.724-.895-1.724-.121 0-.724.362-1.34.803-1.01.725-1.145.794-1.397.706-.208-.073-.33-.23-.477-.625l-.467-1.24c-.298-.793-.464-.97-.91-.97-.25 0-.475.179-1.283 1.017-1.27 1.318-1.275 1.318-2.209-.213-.373-.612-.764-1.158-.868-1.213a.741.741 0 0 0-.723 0m1.158 4.61c1.106.786.518 2.636-.84 2.636-1.316 0-1.979-1.585-1.038-2.485.53-.508 1.29-.57 1.878-.152m-1.392 4.886c.726.275 1.024.11 2.68-1.485l1.244-1.199.527.07c1.651.22 4.937 1.66 6.825 2.995 1.734 1.226 4.04 3.724 5.022 5.442l.21.367-.93 2.095c-.513 1.153-.932 2.216-.932 2.365 0 .343.225.886.442 1.065.091.076.96.494 1.93.929l1.765.791.07.448c.089.584.1 2.019.02 2.426l-.064.319H49.16c-1.168 0-1.078-.105-1.141 1.327-.046 1.037-.297 1.61-.868 1.982-.93.606-2.465.496-3.116-.223-.1-.11-.295-.666-.432-1.235-.403-1.66-.944-2.594-2.03-3.501-.344-.287-.625-.554-.625-.595 0-.04.378-.357.84-.704 1.68-1.266 2.646-2.739 2.752-4.198.203-2.784-2.017-5.378-5.319-6.219-.782-.2-1.117-.205-10.8-.205-5.497 0-9.994-.036-9.994-.08 0-.103 1.221-1.287 1.94-1.881 1.977-1.632 4.543-2.916 7.201-3.602l.92-.238 1.306 1.323c.718.728 1.423 1.367 1.564 1.42m-16.446 8.513c.602.394.848 1.383.493 1.978-.55.92-1.942.959-2.492.069-.8-1.293.74-2.87 1.999-2.047m35.453.05c1.574.96.355 3.318-1.33 2.574a1.426 1.426 0 0 1-.062-2.595c.46-.234.987-.225 1.392.021m-30.815 5.872v5.867H14.36l-.206-.892c-.405-1.758-.576-3.577-.474-5.066l.072-1.047 1.784-.8c1.12-.5 1.84-.883 1.933-1.025.406-.618.367-1.06-.202-2.317L17 25.156h2.551v5.867M34.5 25.411c1.111.289 1.699.877 1.7 1.701.001.605-.299.985-1.043 1.32-.528.239-.611.245-3.935.277l-3.396.033v-3.484h3.042c2.377 0 3.172.033 3.632.153m-1.147 8.42c.55.152 1.202.63 1.536 1.128.351.522.557 1.201 1.043 3.451.411 1.902.675 2.524 1.415 3.333.917 1.002.705.963 5.285.963 2.193 0 3.987.035 3.987.078 0 .077-1.51 1.861-1.576 1.861-.018 0-.807-.165-1.753-.366-2.67-.57-2.766-.503-3.38 2.356l-.393 1.836-.356.176c-.594.292-2.523.895-3.523 1.1-1.653.34-3.452.455-5.033.322-2.695-.229-6.263-1.273-6.403-1.875a252.7 252.7 0 0 1-.398-1.838c-.19-.883-.42-1.72-.512-1.86-.442-.674-.907-.716-2.951-.264-.774.171-1.45.311-1.502.311-.097 0-1.534-1.66-1.534-1.772 0-.034 3.413-.075 7.584-.09l7.584-.025.027-2.692c.02-1.9-.007-2.733-.09-2.831-.091-.111-.58-.14-2.35-.14h-2.234v-3.266h2.579c1.418.001 2.745.047 2.948.103M21.666 46.07c1.206.734.627 2.658-.799 2.656-1.463 0-2.005-1.907-.758-2.666.412-.251 1.136-.246 1.557.01m22.084.08c.59.433.788 1.334.421 1.934-.961 1.576-3.367.323-2.563-1.335.395-.815 1.444-1.109 2.142-.599"/></g></svg>