<?xml version="1.0" encoding="UTF-8" standalone="no"?>
<!-- Generator: Adobe Illustrator 19.0.0, SVG Export Plug-In . SVG Version: 6.00 Build 0)  -->

<svg
   version="1.1"
   id="Layer_1"
   x="0px"
   y="0px"
   viewBox="0 0 453.297 453.297"
   style="enable-background:new 0 0 453.297 453.297;"
   xml:space="preserve"
   sodipodi:docname="tag.svg"
   inkscape:version="1.1.2 (b8e25be8, 2022-02-05)"
   xmlns:inkscape="http://www.inkscape.org/namespaces/inkscape"
   xmlns:sodipodi="http://sodipodi.sourceforge.net/DTD/sodipodi-0.dtd"
   xmlns="http://www.w3.org/2000/svg"
   xmlns:svg="http://www.w3.org/2000/svg"><defs
   id="defs40" /><sodipodi:namedview
   id="namedview38"
   pagecolor="#ffffff"
   bordercolor="#666666"
   borderopacity="1.0"
   inkscape:pageshadow="2"
   inkscape:pageopacity="0.0"
   inkscape:pagecheckerboard="0"
   showgrid="false"
   inkscape:zoom="1.3677567"
   inkscape:cx="226.28294"
   inkscape:cy="226.6485"
   inkscape:window-width="1296"
   inkscape:window-height="842"
   inkscape:window-x="0"
   inkscape:window-y="38"
   inkscape:window-maximized="0"
   inkscape:current-layer="Layer_1" />
<g
   id="XMLID_523_"
   style="fill:#e5c07b;fill-opacity:1">
	<g
   id="g4"
   style="fill:#e5c07b;fill-opacity:1">
		<path
   d="M448.051,253.434L199.863,5.246c-3.559-3.559-8.452-5.457-13.481-5.227L24.484,7.409    c-9.25,0.422-16.653,7.825-17.075,17.075l-7.39,161.898c-0.229,5.029,1.668,9.922,5.227,13.481l248.188,248.188    c6.994,6.995,18.335,6.995,25.329,0l169.288-169.288C455.045,271.769,455.045,260.429,448.051,253.434z M103.146,103.146    c-13.649,13.648-35.778,13.648-49.426,0c-13.649-13.649-13.649-35.778,0-49.427c13.649-13.649,35.778-13.649,49.426,0    C116.795,67.368,116.795,89.497,103.146,103.146z"
   id="path2"
   style="fill:#e5c07b;fill-opacity:1" />
	</g>
</g>
<g
   id="g7">
</g>
<g
   id="g9">
</g>
<g
   id="g11">
</g>
<g
   id="g13">
</g>
<g
   id="g15">
</g>
<g
   id="g17">
</g>
<g
   id="g19">
</g>
<g
   id="g21">
</g>
<g
   id="g23">
</g>
<g
   id="g25">
</g>
<g
   id="g27">
</g>
<g
   id="g29">
</g>
<g
   id="g31">
</g>
<g
   id="g33">
</g>
<g
   id="g35">
</g>
</svg>
