<svg xmlns="http://www.w3.org/2000/svg" xml:space="preserve" viewBox="0 0 453.297 453.297"><path fill="#e5c07b" d="M448.051 253.434 199.863 5.246A17.909 17.909 0 0 0 186.382.019L24.484 7.409c-9.25.422-16.653 7.825-17.075 17.075L.019 186.382a17.912 17.912 0 0 0 5.227 13.481l248.188 248.188c6.994 6.995 18.335 6.995 25.329 0l169.288-169.288c6.994-6.994 6.994-18.334 0-25.329zM103.146 103.146c-13.649 13.648-35.778 13.648-49.426 0-13.649-13.649-13.649-35.778 0-49.427 13.649-13.649 35.778-13.649 49.426 0 13.649 13.649 13.649 35.778 0 49.427z"/></svg>