<?xml version="1.0" encoding="UTF-8" standalone="no"?>
<svg
   width="800"
   height="800"
   viewBox="-10 -5 800 800"
   version="1.1"
   id="svg936"
   sodipodi:docname="by.svg"
   inkscape:version="1.1.2 (b8e25be8, 2022-02-05)"
   xmlns:inkscape="http://www.inkscape.org/namespaces/inkscape"
   xmlns:sodipodi="http://sodipodi.sourceforge.net/DTD/sodipodi-0.dtd"
   xmlns="http://www.w3.org/2000/svg"
   xmlns:svg="http://www.w3.org/2000/svg">
  <defs
     id="defs940" />
  <sodipodi:namedview
     id="namedview938"
     pagecolor="#ffffff"
     bordercolor="#666666"
     borderopacity="1.0"
     inkscape:pageshadow="2"
     inkscape:pageopacity="0.0"
     inkscape:pagecheckerboard="0"
     showgrid="false"
     inkscape:zoom="0.59961315"
     inkscape:cx="230.14839"
     inkscape:cy="283.51613"
     inkscape:window-width="1296"
     inkscape:window-height="842"
     inkscape:window-x="0"
     inkscape:window-y="38"
     inkscape:window-maximized="0"
     inkscape:current-layer="svg936"
     fit-margin-top="0"
     fit-margin-left="0"
     fit-margin-right="0"
     fit-margin-bottom="0" />
  <path
     fill="currentColor"
     d="M 389,-5 Q 224,-5 108,111 -10,231 -10,395 -10,559 108.5,677 227,795 389,795 554,795 676,676 790,564 790,395.5 790,227 674,111 558,-5 389,-5 Z m 2,72 q 135,0 231,96 96,96 96,232 0,139 -94,229 Q 524,722 390,722 256,722 159,625 62,528 62,395.5 62,263 160,163 254,67 391,67 Z m -1,70 q -56,0 -56,56 0,56 56,56 56,0 56,-56 0,-56 -56,-56 z m -82,133 q -11,0 -18.5,7.5 Q 282,285 282,296 v 163 h 46 V 654 H 452 V 459 h 46 V 296 q 0,-11 -8,-18.5 -8,-7.5 -18,-7.5 z"
     id="path934"
     style="fill:#61afef;fill-opacity:1" />
</svg>
