<?xml version="1.0" encoding="UTF-8" standalone="no"?>
<svg
   width="800"
   height="800"
   viewBox="-10 -5 800 800"
   version="1.1"
   id="svg826"
   sodipodi:docname="cc.svg"
   inkscape:version="1.1.2 (b8e25be8, 2022-02-05)"
   xmlns:inkscape="http://www.inkscape.org/namespaces/inkscape"
   xmlns:sodipodi="http://sodipodi.sourceforge.net/DTD/sodipodi-0.dtd"
   xmlns="http://www.w3.org/2000/svg"
   xmlns:svg="http://www.w3.org/2000/svg">
  <defs
     id="defs830" />
  <sodipodi:namedview
     id="namedview828"
     pagecolor="#ffffff"
     bordercolor="#666666"
     borderopacity="1.0"
     inkscape:pageshadow="2"
     inkscape:pageopacity="0.0"
     inkscape:pagecheckerboard="0"
     showgrid="false"
     inkscape:zoom="0.59574468"
     inkscape:cx="228.28571"
     inkscape:cy="285.35714"
     inkscape:window-width="1312"
     inkscape:window-height="842"
     inkscape:window-x="0"
     inkscape:window-y="38"
     inkscape:window-maximized="0"
     inkscape:current-layer="svg826"
     fit-margin-top="0"
     fit-margin-left="0"
     fit-margin-right="0"
     fit-margin-bottom="0" />
  <path
     fill="currentColor"
     d="M 389,-5 Q 223,-5 109,112 51,170 20.5,243 -10,316 -10,395.5 q 0,79.5 30,152 30,72.5 87.5,130 57.5,57.5 130,87.5 72.5,30 152,30 Q 469,795 543,764.5 617,734 676,676 732,621 761,549 790,477 790,395.5 790,314 760.5,241.5 731,169 675,113 557,-5 389,-5 Z m 2,73 q 135,0 232,96 46,47 70.5,106 24.5,59 24.5,125 0,138 -94,230 -48,47 -108.5,72 -60.5,25 -125,25 -64.5,0 -124,-24.5 Q 207,673 160,626 113,579 87.5,519.5 62,460 62,395 62,330 87.5,270.5 113,211 160,163 254,68 391,68 Z M 279,271 q -50,0 -83.5,33.5 Q 162,338 162,396 q 0,58 33,91 33,33 86,33 34,0 62,-17 28,-17 43,-46 l -49,-25 q -14,34 -49,34 -27,0 -40.5,-19 -13.5,-19 -13.5,-52 0,-70 54,-70 11,0 23.5,7 12.5,7 20.5,25 l 54,-28 Q 354,271 279,271 Z m 232,0 q -51,0 -84,33.5 -33,33.5 -33,91.5 0,58 32.5,91 32.5,33 86.5,33 33,0 60.5,-17 27.5,-17 44.5,-46 l -50,-25 q -14,34 -49,34 -27,0 -40.5,-19 -13.5,-19 -13.5,-52 0,-70 54,-70 11,0 23.5,7 12.5,7 21.5,25 l 52,-28 Q 585,271 511,271 Z"
     id="path824"
     style="fill:#61afef;fill-opacity:1" />
</svg>
