<?xml version="1.0" encoding="UTF-8" standalone="no"?>
<!-- Generator: Adobe Illustrator 19.0.0, SVG Export Plug-In . SVG Version: 6.00 Build 0)  -->

<svg
   version="1.1"
   id="Capa_1"
   x="0px"
   y="0px"
   viewBox="0 0 345 345"
   style="enable-background:new 0 0 345 345;"
   xml:space="preserve"
   sodipodi:docname="ko-fi.svg"
   inkscape:version="1.1.2 (b8e25be8, 2022-02-05)"
   xmlns:inkscape="http://www.inkscape.org/namespaces/inkscape"
   xmlns:sodipodi="http://sodipodi.sourceforge.net/DTD/sodipodi-0.dtd"
   xmlns="http://www.w3.org/2000/svg"
   xmlns:svg="http://www.w3.org/2000/svg"><defs
   id="defs147" /><sodipodi:namedview
   id="namedview145"
   pagecolor="#ffffff"
   bordercolor="#666666"
   borderopacity="1.0"
   inkscape:pageshadow="2"
   inkscape:pageopacity="0.0"
   inkscape:pagecheckerboard="0"
   showgrid="false"
   inkscape:zoom="1.7855072"
   inkscape:cx="156.53815"
   inkscape:cy="172.5"
   inkscape:window-width="1312"
   inkscape:window-height="842"
   inkscape:window-x="0"
   inkscape:window-y="38"
   inkscape:window-maximized="0"
   inkscape:current-layer="Capa_1" />
<path
   id="XMLID_105_"
   d="M299,53.461h-18.909c-4.274-16.142-19.001-28.077-36.468-28.077H39.069  c-20.801,0-37.723,16.922-37.723,37.723v71.123c0,53.791,32.939,100.029,79.705,119.615H32.885C14.752,253.846,0,268.598,0,286.731  c0,18.132,14.752,32.884,32.885,32.884h216.923c18.133,0,32.885-14.752,32.885-32.884c0-18.133-14.752-32.885-32.885-32.885h-48.193  c28.232-11.819,51.433-33.34,65.387-60.385H299c25.364,0,46-20.636,46-46v-48C345,74.097,324.364,53.461,299,53.461z   M141.346,203.462c0,0-66.405-35.969-66.405-81.781c0-20.446,16.574-37.02,37.02-37.02c11.974,0,22.618,5.686,29.385,14.504  c6.767-8.818,17.411-14.504,29.385-14.504c20.446,0,37.02,16.574,37.02,37.02C207.751,167.909,141.346,203.462,141.346,203.462z   M305,147.461c0,3.309-2.691,6-6,6h-19.082c0.938-6.276,1.429-12.697,1.429-19.23v-40.77H299c3.309,0,6,2.691,6,6V147.461z"
   style="fill:#e5c07b;fill-opacity:1" />
<g
   id="g114">
</g>
<g
   id="g116">
</g>
<g
   id="g118">
</g>
<g
   id="g120">
</g>
<g
   id="g122">
</g>
<g
   id="g124">
</g>
<g
   id="g126">
</g>
<g
   id="g128">
</g>
<g
   id="g130">
</g>
<g
   id="g132">
</g>
<g
   id="g134">
</g>
<g
   id="g136">
</g>
<g
   id="g138">
</g>
<g
   id="g140">
</g>
<g
   id="g142">
</g>
</svg>
