<svg xmlns="http://www.w3.org/2000/svg" xml:space="preserve" viewBox="0 0 345 345"><path fill="#e5c07b" d="M299 53.461h-18.909c-4.274-16.142-19.001-28.077-36.468-28.077H39.069c-20.801 0-37.723 16.922-37.723 37.723v71.123c0 53.791 32.939 100.029 79.705 119.615H32.885C14.752 253.846 0 268.598 0 286.731c0 18.132 14.752 32.884 32.885 32.884h216.923c18.133 0 32.885-14.752 32.885-32.884 0-18.133-14.752-32.885-32.885-32.885h-48.193c28.232-11.819 51.433-33.34 65.387-60.385H299c25.364 0 46-20.636 46-46v-48c0-25.364-20.636-46-46-46zM141.346 203.462s-66.405-35.969-66.405-81.781c0-20.446 16.574-37.02 37.02-37.02 11.974 0 22.618 5.686 29.385 14.504 6.767-8.818 17.411-14.504 29.385-14.504 20.446 0 37.02 16.574 37.02 37.02 0 46.228-66.405 81.781-66.405 81.781zM305 147.461c0 3.309-2.691 6-6 6h-19.082a130.03 130.03 0 0 0 1.429-19.23v-40.77H299c3.309 0 6 2.691 6 6v48z"/></svg>