<svg version="1" xmlns="http://www.w3.org/2000/svg" width="64" height="64" viewBox="5.5 -3.5 64 64"><circle fill="#FFF" cx="37.64" cy="28.81" r="28.28"/><path d="M37.44-3.5c9 0 16.57 3.08 22.75 9.26 6.2 6.2 9.3 13.8 9.3 22.74 0 9-3.05 16.48-9.14 22.46-6.48 6.36-14.12 9.54-22.92 9.54-8.65 0-16.15-3.14-22.5-9.43-6.3-6.3-9.44-13.8-9.44-22.57 0-8.76 3.14-16.34 9.43-22.74C21.1-.4 28.6-3.5 37.43-3.5zm.12 5.77c-7.28 0-13.43 2.56-18.46 7.66-5.22 5.33-7.83 11.52-7.83 18.57 0 7.1 2.6 13.22 7.77 18.4 5.18 5.18 11.35 7.77 18.52 7.77 7.12 0 13.33-2.6 18.62-7.83C61.2 42 63.73 35.9 63.73 28.5c0-7.28-2.56-13.47-7.66-18.57S44.8 2.27 37.57 2.27zm8.57 18.3v13.07h-3.66v15.54h-9.94V33.64h-3.66V20.56c0-.58.2-1.06.6-1.46.4-.4.9-.6 1.46-.6h13.14c.54 0 1 .2 1.43.6.42.4.63.9.63 1.46zm-13.1-8.24c0-3 1.5-4.5 4.47-4.5s4.46 1.5 4.46 4.5c0 2.97-1.5 4.46-4.46 4.46s-4.46-1.5-4.46-4.47z"/></svg>