<svg version="1" xmlns="http://www.w3.org/2000/svg" width="64" height="64" viewBox="5.5 -3.5 64 64"><circle fill="#FFF" cx="37.78" cy="28.5" r="28.84"/><path d="M37.44-3.5C46.4-3.5 54-.37 60.3 5.87c3 3 5.3 6.45 6.86 10.32 1.56 3.85 2.34 7.96 2.34 12.3 0 4.38-.77 8.5-2.32 12.3-1.54 3.84-3.82 7.22-6.82 10.16-3.13 3.08-6.67 5.44-10.63 7.08-3.96 1.64-8.06 2.46-12.3 2.46s-8.26-.8-12.13-2.43c-3.87-1.62-7.33-3.96-10.4-7.03-3.07-3.06-5.4-6.52-7-10.37s-2.4-7.9-2.4-12.17c0-4.23.8-8.3 2.43-12.2C9.55 12.4 11.9 8.9 15 5.8c6.08-6.2 13.57-9.3 22.44-9.3zm.12 5.77c-7.32 0-13.47 2.56-18.46 7.66-2.52 2.55-4.45 5.42-5.8 8.6-1.35 3.18-2.03 6.5-2.03 9.97 0 3.43.68 6.73 2.03 9.9 1.35 3.2 3.28 6.04 5.8 8.53 2.5 2.5 5.35 4.4 8.5 5.7 3.18 1.33 6.5 2 9.96 2 3.42 0 6.75-.68 9.97-2 3.22-1.35 6.12-3.27 8.7-5.78 5-4.88 7.5-11 7.5-18.35 0-3.54-.65-6.9-1.95-10.06-1.3-3.16-3.18-5.98-5.65-8.45-5.15-5.16-11.34-7.73-18.57-7.73zm-.4 20.92l-4.3 2.22c-.45-.96-1-1.62-1.68-2-.66-.38-1.28-.58-1.85-.58-2.86 0-4.3 1.9-4.3 5.66 0 1.72.37 3.1 1.1 4.1.72 1.04 1.8 1.56 3.2 1.56 1.86 0 3.18-.92 3.94-2.74l3.94 2c-.83 1.56-2 2.8-3.47 3.68-1.5.9-3.13 1.34-4.92 1.34-2.84 0-5.15-.87-6.9-2.62-1.75-1.76-2.63-4.2-2.63-7.32 0-3.05.9-5.46 2.66-7.25 1.77-1.8 4-2.7 6.7-2.7 3.97 0 6.8 1.55 8.53 4.64zm18.45 0L51.4 25.4c-.45-.96-1.02-1.62-1.68-2-.67-.38-1.3-.58-1.92-.58-2.85 0-4.28 1.9-4.28 5.66 0 1.72.36 3.1 1.08 4.1.73 1.04 1.8 1.56 3.2 1.56 1.87 0 3.18-.92 3.94-2.74l4 2c-.87 1.56-2.05 2.8-3.54 3.68-1.48.9-3.1 1.34-4.85 1.34-2.9 0-5.2-.87-6.94-2.62-1.75-1.76-2.62-4.2-2.62-7.32 0-3.05.9-5.46 2.66-7.25 1.77-1.8 4-2.7 6.72-2.7 3.96 0 6.78 1.55 8.45 4.64z"/></svg>