<svg version="1" xmlns="http://www.w3.org/2000/svg" width="64" height="64" viewBox="5.5 -3.5 64 64"><circle fill="#FFF" cx="36.92" cy="28.4" r="28.89"/><path d="M60.2 5.78C54-.42 46.44-3.5 37.47-3.5c-8.87 0-16.37 3.1-22.5 9.28-6.3 6.4-9.46 13.97-9.46 22.72 0 8.74 3.15 16.27 9.45 22.56 6.3 6.3 13.8 9.44 22.5 9.44 8.82 0 16.46-3.17 22.92-9.52 6.1-6.03 9.13-13.52 9.13-22.48s-3.1-16.54-9.3-22.72zm-4 41.04c-5.3 5.23-11.5 7.84-18.66 7.84s-13.33-2.6-18.5-7.76c-5.18-5.18-7.77-11.3-7.77-18.4 0-3 .47-5.84 1.4-8.5l8.48 3.74h-.6v3.8h3c0 .54-.06 1.08-.06 1.6v.93h-2.96v3.8h3.48c.5 2.84 1.56 5.14 3 6.96 3 3.97 7.83 6.1 13.08 6.1 3.42 0 6.53-1 8.35-2.03l-1.3-5.94c-1.1.6-3.63 1.4-6.1 1.4-2.67 0-5.18-.8-6.9-2.74-.8-.9-1.4-2.14-1.77-3.75h11.65l16.55 7.33c-1.15 2.02-2.6 3.9-4.38 5.62zM35.4 30.07L35.3 30l.12.07h-.05zm9.95-2.52h.48v-3.8h-9.07l-3.69-1.64c.32-.7.7-1.34 1.14-1.84 1.67-2.04 4.02-2.9 6.6-2.9 2.35 0 4.55.7 5.94 1.3l1.5-6.12c-1.93-.85-4.77-1.6-8.04-1.6-5.03 0-9.32 2.03-12.37 5.46-.68.8-1.27 1.66-1.8 2.6L15.5 14.33c1.03-1.53 2.23-3 3.62-4.4 5.02-5.12 11.16-7.68 18.42-7.68 7.26 0 13.43 2.56 18.5 7.68 5.13 5.06 7.7 11.25 7.7 18.56 0 2.4-.28 4.68-.82 6.82l-17.57-7.77z"/></svg>