<svg xmlns="http://www.w3.org/2000/svg" width="64" height="64" viewBox="0 0 64 64"><circle fill="#FFF" cx="32.48" cy="31.5" r="28.44"/><path d="M54.7 9.28C48.5 3.08 40.94 0 31.97 0 23.1 0 15.6 3.1 9.46 9.28 3.15 15.68 0 23.25 0 32c0 8.75 3.15 16.27 9.45 22.56 6.3 6.3 13.8 9.44 22.5 9.44 8.82 0 16.46-3.17 22.92-9.52C60.97 48.45 64 40.96 64 32s-3.1-16.53-9.3-22.72zm-4 41.04c-5.3 5.23-11.5 7.84-18.66 7.84s-13.32-2.6-18.5-7.76C8.36 45.23 5.77 39.1 5.77 32c0-2.73.4-5.32 1.16-7.78l16.38 7.3h-3.6v4.98h7.5l.74 1.52v2.4H19.7v5h8.24v7.23h7.96V45.4h8.28v-4.6l10.45 4.66c-1.07 1.74-2.38 3.36-3.93 4.86zm-7.36-9.9H35.9v-2.4l.38-.73 7.06 3.13zm.84-6.6v-2.3H39.2l8.13-14.97h-8.5l-5.6 12.4-2.96-1.34-5.1-11.05h-8.5l3.52 6.58-10.57-4.7c1.1-1.75 2.42-3.4 4-5 5-5.1 11.15-7.67 18.4-7.67 7.27 0 13.44 2.56 18.5 7.68 5.14 5.07 7.7 11.25 7.7 18.56 0 2.7-.34 5.24-1.02 7.6L44.2 33.8z"/></svg>