<svg version="1" xmlns="http://www.w3.org/2000/svg" width="64" height="64" viewBox="5.5 -3.5 64 64"><circle fill="#FFF" cx="37.47" cy="28.74" r="29.47"/><path d="M37.44-3.5c9 0 16.57 3.08 22.75 9.26 6.2 6.17 9.3 13.75 9.3 22.74 0 9-3.05 16.48-9.14 22.46-6.48 6.36-14.12 9.54-22.92 9.54-8.68 0-16.2-3.16-22.5-9.48-6.3-6.3-9.44-13.8-9.44-22.52 0-8.76 3.14-16.34 9.43-22.74C21.1-.4 28.6-3.5 37.43-3.5zM12.7 19.87c-.95 2.63-1.43 5.5-1.43 8.63 0 7.1 2.6 13.22 7.77 18.4 5.22 5.14 11.4 7.72 18.5 7.72 7.22 0 13.42-2.6 18.64-7.83 1.87-1.8 3.34-3.67 4.4-5.6l-12.05-5.4c-.42 2.03-1.44 3.68-3.06 4.96-1.62 1.27-3.54 2-5.74 2.2v4.9H36v-4.9c-3.53-.04-6.77-1.32-9.7-3.83l4.4-4.46c2.1 1.94 4.47 2.92 7.14 2.92 1.1-.02 2.05-.26 2.83-.76.78-.5 1.17-1.3 1.17-2.46 0-.8-.28-1.44-.86-1.94l-3.08-1.3-3.77-1.73-5.1-2.22-16.33-7.3zM37.56 2.2c-7.28 0-13.43 2.58-18.46 7.73-1.26 1.26-2.44 2.68-3.54 4.28l12.23 5.5c.52-1.68 1.53-3.02 3.02-4.03 1.48-1 3.2-1.57 5.2-1.68V9.06h3.7V14c2.94.14 5.6 1.13 8 2.96l-4.16 4.28c-1.8-1.25-3.62-1.88-5.5-1.88-.98 0-1.86.2-2.64.57-.78.38-1.18 1.03-1.18 1.94 0 .27.1.54.3.8l4.05 1.83 2.8 1.26 5.13 2.28 16.4 7.32c.53-2.25.8-4.53.8-6.86 0-7.35-2.55-13.54-7.66-18.57C51 4.8 44.83 2.2 37.57 2.2z"/></svg>