<svg xmlns="http://www.w3.org/2000/svg" version="1" width="64" height="64" viewBox="11 -7 64 64"><g transform="translate(5.5 -3.5)"><circle cx="37.56" cy="28.29" r="29.01" fill="#fff"/><path d="M37.44-3.5c8.95 0 16.53 3.1 22.75 9.3 6.2 6.2 9.3 13.75 9.3 22.7S66.45 44.96 60.36 51c-6.44 6.34-14.08 9.5-22.92 9.5-8.65 0-16.15-3.14-22.5-9.43C8.63 44.8 5.5 37.27 5.5 28.5c0-8.72 3.14-16.28 9.43-22.68 6.2-6.2 13.7-9.32 22.5-9.32zm.12 5.77c-7.28 0-13.43 2.57-18.46 7.72-5.22 5.28-7.83 11.45-7.83 18.5 0 7.13 2.6 13.26 7.77 18.4 5.18 5.18 11.35 7.77 18.5 7.77 7.14 0 13.35-2.6 18.64-7.83 5.03-4.87 7.55-11 7.55-18.34 0-7.3-2.56-13.5-7.66-18.5C51 4.83 44.83 2.26 37.57 2.26zm12.05 18.7v5.47H26.37v-5.48H49.6zm0 10.27v5.5H26.37v-5.5H49.6z"/></g></svg>