<svg version="1" xmlns="http://www.w3.org/2000/svg" width="64" height="64" viewBox="5.5 -3.5 64 64"><circle fill="#FFF" cx="37.47" cy="28.42" r="28.55"/><path d="M37.44-3.5c9 0 16.58 3.1 22.77 9.3 6.2 6.18 9.3 13.75 9.3 22.7s-3.05 16.44-9.14 22.46c-6.44 6.36-14.08 9.54-22.92 9.54-8.68 0-16.18-3.14-22.48-9.43-6.3-6.3-9.46-13.8-9.46-22.57 0-8.76 3.14-16.34 9.43-22.74C21.1-.4 28.6-3.5 37.43-3.5zm.1 5.77c-7.27 0-13.4 2.56-18.44 7.66-5.22 5.3-7.83 11.5-7.83 18.57s2.6 13.22 7.77 18.4c5.18 5.18 11.36 7.77 18.52 7.77s13.37-2.6 18.63-7.83c5.02-4.88 7.53-11 7.53-18.34 0-7.32-2.55-13.5-7.66-18.57-5.1-5.1-11.3-7.66-18.54-7.66zM22.46 37.2V19.46h8.8c4.34 0 6.52 2 6.52 6 0 .7-.12 1.34-.33 1.97-.2.63-.57 1.26-1.08 1.9-.53.62-1.3 1.13-2.33 1.53-1.03.4-2.25.6-3.65.6h-3.5v5.72h-4.45zm4.4-14.42v5.38h3.77c.92 0 1.6-.26 2.06-.78.46-.5.7-1.15.7-1.9 0-1.8-.97-2.7-2.87-2.7h-3.66zm12.1 14.4V19.5h6.87c2.82 0 5.03.72 6.63 2.16 1.6 1.45 2.4 3.68 2.4 6.7 0 3-.8 5.23-2.4 6.68-1.6 1.44-3.8 2.17-6.63 2.17h-6.86zm4.42-14v10.3h2.56c1.56 0 2.7-.47 3.4-1.4.7-.94 1.05-2.2 1.05-3.75 0-1.56-.34-2.8-1.04-3.74-.7-.95-1.86-1.4-3.46-1.4h-2.5z"/></svg>