<svg version="1" xmlns="http://www.w3.org/2000/svg" width="64" height="64" viewBox="5.5 -3.5 64 64"><circle fill="#FFF" cx="37.83" cy="28" r="28.83"/><path d="M37.44-3.5c8.95 0 16.53 3.1 22.75 9.3 6.2 6.2 9.3 13.75 9.3 22.7S66.45 44.96 60.36 51c-6.44 6.34-14.08 9.5-22.92 9.5-8.65 0-16.15-3.14-22.5-9.43C8.63 44.8 5.5 37.27 5.5 28.5c0-8.72 3.14-16.28 9.43-22.68 6.2-6.2 13.7-9.32 22.5-9.32zm.12 5.77c-7.28 0-13.43 2.57-18.46 7.72-5.22 5.28-7.83 11.45-7.83 18.5 0 7.13 2.6 13.26 7.77 18.4 5.18 5.18 11.35 7.77 18.52 7.77 7.12 0 13.33-2.6 18.62-7.83 5.03-4.87 7.55-11 7.55-18.34 0-7.3-2.56-13.5-7.66-18.5C51 4.83 44.83 2.26 37.57 2.26zm20.85 26.8l.64.3v9.02l-.57.27-7.77 3.3-.34.13-.4-.1-16.75-6.93-.56-.23-8.28 3.43-8.17-3.54V26.5l7.64-3.2-.05-.06V14.2l8.67-3.8 19.6 8.1v7.94l6.34 2.63zm-9.07 10.5v-5.64h-.06v-.23l-14.7-6v5.83l14.7 6.06v-.07l.06.05zm.97-7.4l5.14-2.13-4.74-2-5.03 2.12 4.63 2zm6.74 4.9v-5.54l-5.7 2.4v5.6l5.7-2.46z"/></svg>