<svg version="1" xmlns="http://www.w3.org/2000/svg" width="64" height="64" viewBox="5.5 -3.5 64 64"><circle fill="#FFF" cx="36.94" cy="28.63" r="29.11"/><path d="M37.44-3.5c8.95 0 16.53 3.1 22.75 9.3 6.2 6.2 9.3 13.75 9.3 22.7S66.45 44.96 60.36 51c-6.44 6.34-14.08 9.5-22.92 9.5-8.65 0-16.15-3.14-22.5-9.43C8.63 44.8 5.5 37.27 5.5 28.5c0-8.72 3.14-16.28 9.43-22.68 6.2-6.2 13.7-9.32 22.5-9.32zm.12 5.77c-7.28 0-13.43 2.57-18.46 7.72-5.22 5.28-7.83 11.45-7.83 18.5 0 7.13 2.6 13.26 7.77 18.4 5.18 5.18 11.35 7.77 18.52 7.77 7.12 0 13.33-2.6 18.62-7.83 5.03-4.87 7.55-11 7.55-18.34 0-7.3-2.56-13.5-7.66-18.5C51 4.83 44.83 2.26 37.57 2.26zm-14.3 21.71c.62-3.92 2.2-6.96 4.75-9.1 2.57-2.16 5.67-3.24 9.33-3.24 5.02 0 9.03 1.62 12 4.86 2.97 3.24 4.45 7.4 4.45 12.46 0 4.9-1.54 9-4.62 12.25-3.1 3.27-7.1 4.9-12 4.9-3.62 0-6.75-1.1-9.38-3.26-2.63-2.17-4.2-5.26-4.74-9.26h8.06c.2 3.9 2.53 5.83 7.03 5.83 2.25 0 4.06-.96 5.43-2.9s2.06-4.53 2.06-7.77c0-3.4-.63-5.97-1.9-7.74-1.25-1.8-3.05-2.67-5.42-2.67-4.27 0-6.67 1.88-7.2 5.65h2.34l-6.34 6.35-6.34-6.35h2.5z"/></svg>