<svg version="1" xmlns="http://www.w3.org/2000/svg" width="64" height="64" viewBox="5.5 -3.5 64 64"><circle fill="#FFF" cx="38.05" cy="28.47" r="29.48"/><path d="M37.44-3.5c9 0 16.58 3.1 22.77 9.3 6.2 6.18 9.3 13.75 9.3 22.7s-3.05 16.44-9.14 22.46c-6.44 6.36-14.08 9.54-22.92 9.54-8.68 0-16.18-3.14-22.48-9.43-6.3-6.3-9.46-13.8-9.46-22.57 0-8.76 3.14-16.34 9.43-22.74C21.1-.4 28.6-3.5 37.43-3.5zm.1 5.77c-7.27 0-13.4 2.56-18.44 7.66-5.22 5.3-7.83 11.5-7.83 18.57s2.6 13.22 7.77 18.4c5.18 5.18 11.36 7.77 18.52 7.77s13.37-2.6 18.63-7.83c5.02-4.88 7.53-11 7.53-18.34 0-7.32-2.55-13.5-7.66-18.57-5.1-5.1-11.3-7.66-18.54-7.66zM38 9.13c.4-.04.73.06 1.02.3.28.26.44.58.48.96v.2l.86 13.84.63-7.66c0-.38.12-.7.38-.97s.6-.4.98-.4.7.15.97.4c.26.28.4.6.4.98v.23l.74 10.3.74-8.3c.05-.33.2-.62.44-.84.25-.23.54-.35.9-.35s.64.12.9.33c.27.2.42.5.46.83l1.5 12.46.67-1.66c.23-.57.67-.86 1.3-.86h7.5v2.74H52.3l-2.34 5.72c-.27.68-.77.97-1.5.85-.33-.02-.6-.16-.82-.4s-.33-.5-.37-.84l-.5-4.12-.98 11.95c-.05.33-.2.6-.44.84s-.55.34-.9.34c-.33 0-.64-.1-.9-.34-.27-.23-.42-.5-.46-.85v-.2l-.8-9.87-.7 9.3c-.07.35-.23.64-.47.87-.25.23-.55.34-.9.34-.33 0-.64-.1-.9-.34s-.42-.52-.46-.86v-.17l-.75-11.14-.74 12.23v.17c0 .38-.13.7-.4 1s-.6.43-.97.43-.7-.15-.96-.43c-.27-.3-.4-.62-.4-1V45l-.74-11.3-.7 10.9v.18c-.07.35-.23.63-.47.86-.25.23-.55.34-.9.34s-.64-.1-.9-.34c-.27-.23-.42-.5-.46-.86v-.17h-.06v-.16l-.8-11.42-.62 7.3c-.03.35-.2.64-.45.87-.27.2-.57.33-.92.33-.33 0-.63-.1-.87-.32-.25-.2-.4-.47-.5-.8l-1.42-9.84-.16.34c-.23.5-.65.74-1.26.74h-6.63V28.9h5.78l1.77-3.6c.26-.6.73-.87 1.4-.77.66.1 1.05.46 1.17 1.1l.4 2.64 1.08-12.63c0-.38.14-.7.4-.97s.6-.4.97-.4.7.13.98.4c.26.27.4.6.4.97v.23l.62 8.9.86-11.93v-.17c.04-.34.18-.63.43-.86.26-.2.55-.33.9-.33s.64.12.9.34c.28.24.43.53.47.87v.17l.68 10.4.8-12.63v-.2c0-.36.13-.64.37-.87.26-.23.55-.36.9-.4z"/></svg>