<svg version="1" xmlns="http://www.w3.org/2000/svg" width="64" height="64" viewBox="5.5 -3.5 64 64"><circle fill="#FFF" cx="37.45" cy="28.45" r="28.04"/><path d="M37.46-3.5c-8.86 0-16.37 3.1-22.5 9.28-6.3 6.4-9.46 13.97-9.46 22.72 0 8.75 3.15 16.27 9.45 22.56 6.3 6.3 13.8 9.44 22.5 9.44 8.82 0 16.46-3.17 22.92-9.52 6.08-6.03 9.13-13.52 9.13-22.48s-3.1-16.53-9.3-22.72C54-.42 46.44-3.5 37.47-3.5zm.08 5.76c7.26 0 13.43 2.56 18.5 7.68 5.13 5.07 7.7 11.25 7.7 18.56 0 7.36-2.52 13.47-7.54 18.32-5.28 5.23-11.5 7.84-18.66 7.84s-13.32-2.6-18.5-7.76c-5.18-5.17-7.77-11.3-7.77-18.4 0-7.1 2.6-13.28 7.85-18.56 5.02-5.12 11.16-7.68 18.42-7.68z"/><path d="M51.36 28.8c-.6 0-1.15.36-1.38.92l-.5 1.22-1.44-11.97c-.1-.77-.74-1.34-1.52-1.33-.77.02-1.4.6-1.46 1.38l-.55 6.64-.66-8.88c-.07-.78-.7-1.4-1.5-1.4-.78 0-1.43.6-1.5 1.4l-.44 5.8-.77-12.17c-.05-.8-.7-1.4-1.5-1.4s-1.45.62-1.5 1.4L36 21.2l-.56-8.54c-.05-.8-.7-1.4-1.5-1.4s-1.44.6-1.5 1.4L31.76 23l-.54-7.35c-.05-.78-.7-1.4-1.47-1.4-.78 0-1.44.6-1.5 1.38l-1 11.6-.24-1.6c-.1-.64-.6-1.15-1.27-1.25-.65-.1-1.3.24-1.57.84l-1.7 3.57H16.8v3h6.6c.57 0 1.1-.33 1.34-.83l1.4 9.43c.1.75.76 1.3 1.52 1.28.76-.02 1.38-.6 1.45-1.36l.5-5.63.72 10.1c.06.8.72 1.4 1.5 1.4.8 0 1.45-.62 1.5-1.4l.6-9.1.6 9.47c.06.8.72 1.4 1.5 1.4.8 0 1.46-.62 1.5-1.4l.64-10.4.58 9.27c.05.78.7 1.4 1.5 1.4.77 0 1.43-.6 1.5-1.38l.58-7.57.63 8.3c.06.8.7 1.4 1.5 1.4.77 0 1.43-.6 1.5-1.38l.87-10.7.35 2.87c.07.67.6 1.2 1.28 1.3.68.1 1.33-.28 1.6-.9l2.3-5.6h6.53v-3h-7.52zm-10.06.66h-2.83v2.84c0 .53-.44.96-.97.96s-.97-.43-.97-.96v-2.83H33.7c-.53 0-.96-.44-.96-.97s.43-.97.96-.97h2.83V24.7c0-.53.44-.96.97-.96s.97.43.97.96v2.83h2.83c.53 0 .96.44.96.97s-.43.96-.96.96z"/></svg>