<svg version="1" xmlns="http://www.w3.org/2000/svg" width="64" height="64" viewBox="5.5 -3.5 64 64"><circle fill="#FFF" cx="37.95" cy="28.89" r="29.7"/><path d="M37.44-3.5c8.95 0 16.53 3.1 22.75 9.3 6.2 6.2 9.3 13.75 9.3 22.7S66.45 44.96 60.36 51c-6.44 6.34-14.08 9.5-22.92 9.5-8.65 0-16.15-3.14-22.5-9.43C8.63 44.8 5.5 37.27 5.5 28.5c0-8.72 3.14-16.28 9.43-22.68 6.2-6.2 13.7-9.32 22.5-9.32zm.12 5.77c-7.28 0-13.43 2.57-18.46 7.72-5.22 5.28-7.83 11.45-7.83 18.5 0 7.13 2.6 13.26 7.77 18.4 5.18 5.18 11.35 7.77 18.52 7.77 7.12 0 13.33-2.6 18.62-7.83 5.03-4.87 7.55-11 7.55-18.34 0-7.3-2.56-13.5-7.66-18.5C51 4.83 44.83 2.26 37.57 2.26zm13.03 17.1c.48 0 .9.16 1.24.5.35.34.52.76.52 1.26v23.54c0 .5-.17.9-.52 1.26-.34.34-.76.5-1.25.5H33.15c-.5 0-.92-.16-1.26-.5-.35-.35-.52-.76-.52-1.26V37.7h-6.97c-.48 0-.9-.17-1.24-.52-.35-.34-.52-.76-.52-1.25V12.4c0-.47.15-.86.46-1.2.3-.3.68-.5 1.14-.58H41.85c.5 0 .9.17 1.26.5.34.35.5.77.5 1.27v6.96h7zM26.12 34.2h5.26V21.14c-.02-.46.14-.85.44-1.17.3-.33.67-.53 1.1-.6H40.12v-5.2h-14V34.2zm22.74-11.36h-14V42.9h14V22.84z"/></svg>