<svg xmlns="http://www.w3.org/2000/svg" width="64" height="64" viewBox="-0.5 0.5 64 64"><circle fill="#FFF" cx="31.32" cy="32.87" r="30.1"/><path d="M31.5 14.08c-10.56 0-13.22 9.97-13.22 18.42 0 8.45 2.65 18.42 13.22 18.42 10.56 0 13.22-9.97 13.22-18.42 0-8.45-2.66-18.42-13.22-18.42zm0 6.95c.43 0 .82.06 1.2.15.75.66 1.12 1.56.4 2.83l-7.04 12.94c-.22-1.64-.25-3.24-.25-4.44 0-3.72.27-11.47 5.7-11.47zM36.77 27c.37 1.97.42 4.04.42 5.5 0 3.72-.27 11.47-5.7 11.47-.43 0-.82-.04-1.2-.13l-.2-.07-.32-.1c-1.2-.52-1.98-1.45-.88-3.1L36.77 27z"/><path d="M31.43.5C22.56.5 15.07 3.6 8.98 9.8c-3.1 3.1-5.44 6.6-7.08 10.53C.3 24.23-.5 28.27-.5 32.5c0 4.27.8 8.32 2.4 12.17 1.6 3.85 3.92 7.3 6.97 10.4 3.08 3.04 6.55 5.4 10.4 7.03 3.88 1.6 7.93 2.4 12.16 2.4s8.34-.83 12.3-2.47c3.97-1.64 7.5-4 10.63-7.08 3-2.93 5.3-6.3 6.8-10.1C62.74 41 63.5 36.88 63.5 32.5c0-4.34-.77-8.45-2.33-12.3-1.56-3.9-3.85-7.32-6.86-10.33C48.04 3.62 40.4.5 31.44.5zm.14 5.76c7.24 0 13.4 2.57 18.55 7.7 2.48 2.48 4.38 5.32 5.67 8.48 1.3 3.16 1.94 6.52 1.94 10.06 0 7.35-2.52 13.45-7.5 18.33-2.6 2.52-5.5 4.45-8.75 5.78-3.2 1.34-6.5 2-9.93 2-3.47 0-6.8-.65-9.95-1.94-3.17-1.34-6-3.24-8.52-5.72-2.5-2.5-4.45-5.35-5.82-8.52-1.34-3.2-2.02-6.5-2.02-9.92 0-3.47.68-6.8 2.02-9.95 1.37-3.2 3.3-6.08 5.82-8.63 5-5.1 11.15-7.66 18.47-7.66z"/></svg>