<?xml version="1.0" encoding="UTF-8" standalone="no"?>
<!-- Created with Serif DrawPlus 11, 0, 3, 23 (Feb 25, 14:12:55) (http://www.serif.com) -->

<svg
   xmlns:dc="http://purl.org/dc/elements/1.1/"
   xmlns:cc="http://creativecommons.org/ns#"
   xmlns:rdf="http://www.w3.org/1999/02/22-rdf-syntax-ns#"
   xmlns:svg="http://www.w3.org/2000/svg"
   xmlns="http://www.w3.org/2000/svg"
   xmlns:sodipodi="http://sodipodi.sourceforge.net/DTD/sodipodi-0.dtd"
   xmlns:inkscape="http://www.inkscape.org/namespaces/inkscape"
   sodipodi:docname="Angular_momentum_definition.svg"
   inkscape:version="0.91 r13725"
   id="svg2"
   height="123.385"
   width="250.676"
   version="1.1"
   inkscape:export-filename="/home/colin/devel/zyzle.github.io/images/drafts/angular-momentum.png"
   inkscape:export-xdpi="358.87668"
   inkscape:export-ydpi="358.87668">
  <sodipodi:namedview
     inkscape:current-layer="svg2"
     inkscape:window-maximized="1"
     inkscape:window-y="27"
     inkscape:window-x="0"
     inkscape:cy="52.460379"
     inkscape:cx="134.12907"
     inkscape:zoom="2.8284271"
     showgrid="false"
     id="namedview94"
     inkscape:window-height="699"
     inkscape:window-width="1366"
     inkscape:pageshadow="2"
     inkscape:pageopacity="0"
     guidetolerance="10"
     gridtolerance="10"
     objecttolerance="10"
     borderopacity="1"
     bordercolor="#666666"
     pagecolor="#333333" />
  <metadata
     id="metadata98">
    <rdf:RDF>
      <cc:Work
         rdf:about="">
        <dc:format>image/svg+xml</dc:format>
        <dc:type
           rdf:resource="http://purl.org/dc/dcmitype/StillImage" />
        <dc:title />
      </cc:Work>
    </rdf:RDF>
  </metadata>
  <defs
     id="defs96" />
  <rect
     style="opacity:1;fill:#1c1f24;fill-opacity:1;stroke:none;stroke-width:10;stroke-linejoin:miter;stroke-miterlimit:100;stroke-dasharray:none;stroke-opacity:1"
     id="rect4221"
     width="254.91183"
     height="126.57206"
     x="0"
     y="-3.1870575" />
  <g
     id="dp_group002"
     transform="translate(-109.705,-284.528)">
    <g
       id="dp_group003">
      <path
         style="fill:#1976d2;fill-rule:evenodd"
         inkscape:connector-curvature="0"
         d="m 344.792,356.613 0.403,0.835 0.806,1.669 3.167,-4.104 -5.184,-0.07 z"
         id="dp_path004" />
      <path
         style="fill:#1976d2"
         inkscape:connector-curvature="0"
         d="m 304.884,376.923 40.311,-19.475 -0.403,-0.835 -40.311,19.475 z"
         id="dp_path005" />
    </g>
  </g>
  <g
     id="dp_group006"
     transform="translate(-109.705,-284.528)">
    <g
       id="dp_group007">
      <path
         style="fill:#e03237;fill-rule:evenodd"
         inkscape:connector-curvature="0"
         d="m 327.177,370.612 0.99,-0.125 1.977,-0.248 -3.093,-4.635 -1.852,5.256 z"
         id="dp_path008" />
      <path
         style="fill:#e03237"
         inkscape:connector-curvature="0"
         d="m 324.805,381.932 0.246,-0.387 0.244,-0.396 0.237,-0.405 0.231,-0.412 0.221,-0.419 0.213,-0.425 0.207,-0.433 0.197,-0.443 0.187,-0.448 0.179,-0.456 0.085,-0.233 0.083,-0.234 0.08,-0.236 0.077,-0.238 0.073,-0.239 0.072,-0.24 0.07,-0.245 0.065,-0.246 0.064,-0.248 0.059,-0.249 0.057,-0.252 0.053,-0.256 0.05,-0.255 0.048,-0.257 0.044,-0.263 0.038,-0.262 0.038,-0.263 0.034,-0.268 0.028,-0.269 0.028,-0.271 0.022,-0.275 0.02,-0.274 0.014,-0.278 0.012,-0.281 0.007,-0.283 0.004,-0.284 0,-0.313 -0.025,-0.209 -0.99,0.125 0.02,0.145 0,0.247 -0.004,0.271 -0.006,0.269 -0.012,0.265 -0.015,0.264 -0.017,0.264 -0.022,0.259 -0.025,0.257 -0.028,0.256 -0.032,0.252 -0.035,0.252 -0.038,0.25 -0.042,0.244 -0.045,0.246 -0.047,0.244 -0.05,0.24 -0.055,0.239 -0.056,0.236 -0.059,0.235 -0.062,0.234 -0.064,0.23 -0.07,0.229 -0.07,0.228 -0.072,0.225 -0.078,0.223 -0.077,0.223 -0.08,0.217 -0.171,0.435 -0.178,0.429 -0.187,0.419 -0.196,0.412 -0.205,0.406 -0.211,0.4 -0.22,0.394 -0.227,0.386 -0.233,0.38 -0.243,0.379 z"
         id="dp_path009" />
    </g>
  </g>
  <text
     style="font-weight:700;font-size:12.97826576px;font-family:Arial;fill:#1976d2"
     y="71.344521"
     x="243.41296"
     font-weight="700"
     font-size="13"
     xml:space="preserve"
     transform="scale(0.9983281,1.0016747)"
     id="dp_text001">p </text>
  <text
     style="font-weight:700;font-size:12.98035526px;font-family:Arial;fill:#1976d2"
     y="108.0305"
     x="238.66365"
     font-weight="700"
     font-size="13"
     xml:space="preserve"
     transform="scale(0.99848886,1.0015134)"
     id="dp_text002">r </text>
  <g
     id="dp_group012"
     transform="translate(-109.705,-284.528)">
    <g
       id="dp_group013">
      <path
         style="fill:#1976d2;fill-rule:evenodd"
         inkscape:connector-curvature="0"
         d="m 340.011,386.256 -0.254,0.892 -0.508,1.784 5.095,-0.961 -3.825,-3.499 z"
         id="dp_path014" />
      <path
         style="fill:#1976d2"
         inkscape:connector-curvature="0"
         d="m 304.44,377.109 35.317,10.04 0.254,-0.893 -35.318,-10.04 z"
         id="dp_path015" />
    </g>
  </g>
  <path
     style="fill:none;fill-rule:evenodd;stroke:#bbbbbb;stroke-width:0.92799997"
     inkscape:connector-curvature="0"
     d="m 194.804,73.683 15.295,4.509 0,17.625"
     id="dp_path016" />
  <text
     style="font-weight:700;font-size:12.9818716px;font-family:Arial;fill:#bbbbbb"
     y="35.692158"
     x="191.49803"
     font-weight="700"
     font-size="13"
     xml:space="preserve"
     transform="scale(0.99860553,1.0013964)"
     id="dp_text003">L = </text>
  <text
     style="font-weight:700;font-size:12.98405266px;font-family:Arial;fill:#1976d2"
     y="35.698154"
     x="213.4637"
     font-weight="700"
     font-size="13"
     xml:space="preserve"
     transform="scale(0.99877325,1.0012283)"
     id="dp_text004">r</text>
  <text
     style="font-weight:700;font-size:12.97767258px;font-family:Arial;fill:#bbbbbb"
     y="35.680614"
     x="218.46703"
     font-weight="700"
     font-size="13"
     xml:space="preserve"
     transform="scale(0.99828253,1.0017204)"
     id="dp_text005" />
  <text
     style="font-weight:700;font-size:13px;font-family:'Times New Roman';fill:#bbbbbb"
     y="35.742001"
     x="221.5737"
     font-weight="700"
     font-size="13"
     xml:space="preserve"
     id="dp_text006">×</text>
  <text
     style="font-weight:700;font-size:12.97767258px;font-family:Arial;fill:#bbbbbb"
     y="35.680614"
     x="229.13409"
     font-weight="700"
     font-size="13"
     xml:space="preserve"
     transform="scale(0.99828253,1.0017204)"
     id="dp_text007" />
  <text
     style="font-weight:700;font-size:12.97904015px;font-family:Arial;fill:#1976d2"
     y="35.684372"
     x="232.59795"
     font-weight="700"
     font-size="13"
     xml:space="preserve"
     transform="scale(0.9983877,1.0016149)"
     id="dp_text008">p </text>
  <g
     id="dp_group023"
     transform="translate(-109.705,-284.528)">
    <g
       id="dp_group024">
      <path
         style="fill:#bbbbbb;fill-rule:evenodd"
         inkscape:connector-curvature="0"
         d="m 304.124,335.46 0.928,0 1.855,0 -2.319,-4.637 -2.319,4.637 z"
         id="dp_path025" />
      <path
         style="fill:#bbbbbb"
         inkscape:connector-curvature="0"
         d="m 305.052,376.747 0,-41.287 -0.928,0 0,41.287 z"
         id="dp_path026" />
    </g>
  </g>
  <path
     style="fill:#e03237;fill-rule:evenodd"
     inkscape:connector-curvature="0"
     d="m 227.982,86.937 c -0.046,-0.185 -0.106,-0.369 -0.18,-0.548 -0.075,-0.181 -0.171,-0.341 -0.291,-0.48 -0.121,-0.138 -0.263,-0.253 -0.424,-0.341 -0.161,-0.088 -0.355,-0.132 -0.576,-0.132 -0.223,0 -0.435,0.044 -0.639,0.132 -0.204,0.088 -0.397,0.203 -0.582,0.341 -0.186,0.139 -0.362,0.299 -0.527,0.48 -0.167,0.179 -0.32,0.363 -0.459,0.548 -0.416,0.547 -0.749,1.115 -0.998,1.704 -0.251,0.59 -0.45,1.184 -0.598,1.787 -0.157,0.603 -0.256,1.199 -0.297,1.785 -0.043,0.59 0.007,1.158 0.145,1.704 0.046,0.187 0.108,0.367 0.187,0.542 0.079,0.176 0.176,0.334 0.292,0.473 0.115,0.14 0.255,0.253 0.416,0.341 0.161,0.088 0.355,0.132 0.576,0.132 0.223,0 0.435,-0.044 0.639,-0.132 0.204,-0.088 0.4,-0.201 0.589,-0.341 0.189,-0.139 0.368,-0.297 0.535,-0.473 0.166,-0.175 0.318,-0.355 0.457,-0.542 0.407,-0.546 0.736,-1.114 0.985,-1.704 0.251,-0.586 0.454,-1.182 0.611,-1.785 0.148,-0.603 0.243,-1.197 0.284,-1.787 0.043,-0.589 -0.007,-1.157 -0.145,-1.704 z m -0.776,0.111 c 0.045,0.501 0.017,1.017 -0.084,1.547 -0.103,0.53 -0.218,1.069 -0.347,1.617 l -2.9,0 c 0.128,-0.548 0.277,-1.087 0.443,-1.617 0.168,-0.53 0.398,-1.046 0.694,-1.547 0.214,-0.352 0.432,-0.66 0.66,-0.92 0.226,-0.26 0.483,-0.391 0.77,-0.391 0.138,0 0.254,0.035 0.346,0.106 0.094,0.069 0.167,0.164 0.223,0.285 0.055,0.121 0.097,0.26 0.125,0.417 0.027,0.16 0.051,0.327 0.07,0.503 z m -0.543,3.593 c -0.129,0.547 -0.277,1.083 -0.443,1.606 -0.168,0.524 -0.398,1.041 -0.694,1.55 -0.204,0.351 -0.422,0.658 -0.652,0.916 -0.232,0.262 -0.487,0.391 -0.764,0.391 -0.139,0 -0.256,-0.036 -0.354,-0.105 -0.097,-0.07 -0.173,-0.164 -0.229,-0.286 -0.055,-0.12 -0.099,-0.258 -0.132,-0.416 -0.032,-0.157 -0.053,-0.324 -0.063,-0.5 -0.036,-0.509 -0.006,-1.026 0.091,-1.55 0.097,-0.523 0.211,-1.059 0.34,-1.606 z"
     id="dp_path027" />
  <g
     id="dp_group028"
     transform="translate(-109.705,-284.528)">
    <g
       id="dp_group029">
      <path
         style="fill:#1976d2;fill-rule:evenodd"
         inkscape:connector-curvature="0"
         d="m 236.392,351.901 0.701,0.607 1.402,1.215 1.282,-5.023 -4.788,1.988 z"
         id="dp_path030" />
      <path
         style="fill:#1976d2"
         inkscape:connector-curvature="0"
         d="m 215.285,377.691 21.808,-25.182 -0.701,-0.608 -21.808,25.182 z"
         id="dp_path031" />
    </g>
  </g>
  <g
     id="dp_group032"
     transform="translate(-109.705,-284.528)">
    <g
       id="dp_group033">
      <path
         style="fill:#1976d2;fill-rule:evenodd"
         inkscape:connector-curvature="0"
         d="m 254.82,359.072 0.403,0.835 0.806,1.669 3.167,-4.104 -5.184,-0.071 z"
         id="dp_path034" />
      <path
         style="fill:#1976d2"
         inkscape:connector-curvature="0"
         d="m 214.912,379.383 40.311,-19.476 -0.403,-0.835 -40.311,19.476 z"
         id="dp_path035" />
    </g>
  </g>
  <g
     id="dp_group036"
     transform="translate(-109.705,-284.528)">
    <g
       id="dp_group037">
      <path
         style="fill:#1976d2;fill-rule:evenodd"
         inkscape:connector-curvature="0"
         d="m 237.053,385.508 -0.272,0.887 -0.545,1.773 5.113,-0.853 -3.75,-3.579 z"
         id="dp_path038" />
      <path
         style="fill:#1976d2"
         inkscape:connector-curvature="0"
         d="m 215.053,379.711 21.728,6.684 0.272,-0.886 -21.728,-6.684 z"
         id="dp_path039" />
    </g>
  </g>
  <g
     id="dp_group040"
     transform="translate(-109.705,-284.528)">
    <g
       id="dp_group041">
      <path
         style="fill:#e03237;fill-rule:evenodd"
         inkscape:connector-curvature="0"
         d="m 237.205,373.481 0.99,-0.124 1.977,-0.249 -3.093,-4.635 -1.852,5.256 z"
         id="dp_path042" />
      <path
         style="fill:#e03237"
         inkscape:connector-curvature="0"
         d="m 234.833,384.801 0.246,-0.386 0.244,-0.396 0.237,-0.406 0.231,-0.412 0.221,-0.418 0.213,-0.426 0.207,-0.433 0.197,-0.441 0.188,-0.45 0.178,-0.456 0.085,-0.233 0.083,-0.233 0.08,-0.236 0.077,-0.239 0.073,-0.239 0.072,-0.24 0.07,-0.245 0.065,-0.245 0.064,-0.248 0.059,-0.25 0.057,-0.252 0.053,-0.254 0.051,-0.256 0.047,-0.259 0.044,-0.261 0.038,-0.263 0.038,-0.263 0.034,-0.266 0.03,-0.271 0.026,-0.272 0.022,-0.273 0.02,-0.275 0.016,-0.277 0.01,-0.282 0.008,-0.282 0.003,-0.286 0,-0.312 -0.025,-0.209 -0.99,0.125 0.02,0.146 0,0.248 -0.002,0.269 -0.008,0.269 -0.011,0.266 -0.016,0.264 -0.017,0.264 -0.022,0.26 -0.024,0.256 -0.029,0.254 -0.032,0.254 -0.035,0.252 -0.038,0.249 -0.042,0.245 -0.044,0.246 -0.048,0.242 -0.05,0.242 -0.055,0.238 -0.056,0.236 -0.059,0.235 -0.062,0.235 -0.064,0.229 -0.07,0.229 -0.07,0.228 -0.072,0.226 -0.078,0.222 -0.077,0.223 -0.08,0.217 -0.169,0.435 -0.18,0.428 -0.187,0.42 -0.196,0.412 -0.205,0.407 -0.211,0.4 -0.22,0.393 -0.227,0.387 -0.233,0.38 -0.243,0.378 z"
         id="dp_path043" />
    </g>
  </g>
  <text
     style="font-weight:400;font-size:13.026577px;font-family:Arial;fill:#1976d2"
     y="144.04208"
     x="35.079792"
     font-weight="400"
     font-size="13"
     xml:space="preserve"
     transform="matrix(0.62808594,-0.78076979,0.77616121,0.62729755,0,0)"
     id="dp_text009">|</text>
  <text
     style="font-weight:700;font-size:12.97963619px;font-family:Arial;fill:#1976d2"
     y="143.52271"
     x="38.455585"
     font-weight="700"
     font-size="13"
     xml:space="preserve"
     transform="matrix(0.6258223,-0.77795661,0.77896819,0.62956617,0,0)"
     id="dp_text010">p</text>
  <text
     style="font-weight:400;font-size:13.026577px;font-family:Arial;fill:#1976d2"
     y="144.04221"
     x="45.960052"
     font-weight="400"
     font-size="13"
     xml:space="preserve"
     transform="matrix(0.62808594,-0.78076979,0.77616121,0.62729755,0,0)"
     id="dp_text011">|</text>
  <text
     style="font-weight:400;font-size:13.00972176px;font-family:Arial;fill:#bbbbbb"
     y="143.85547"
     x="49.260517"
     font-weight="400"
     font-size="13"
     xml:space="preserve"
     transform="matrix(0.62727289,-0.77975985,0.77716679,0.62811026,0,0)"
     id="dp_text012">sin</text>
  <text
     style="font-style:italic;font-weight:400;font-size:14px;font-family:'Euclid Symbol';fill:#fdbf16"
     y="143.7482"
     x="65.350212"
     font-style="italic"
     font-weight="400"
     font-size="14"
     xml:space="preserve"
     transform="matrix(0.62680406,-0.77917707,0.77774807,0.62858006,0,0)"
     id="dp_text013" />
  <text
     style="font-weight:700;font-size:12.97763157px;font-family:Arial;fill:#1976d2"
     y="157.85742"
     x="35.212101"
     font-weight="700"
     font-size="13"
     xml:space="preserve"
     transform="matrix(0.62572566,-0.77783639,0.77908855,0.62966344,0,0)"
     id="dp_text014" />
  <text
     style="font-weight:700;font-size:12.97826576px;font-family:Arial;fill:#1976d2"
     y="74.209724"
     x="152.47092"
     font-weight="700"
     font-size="13"
     xml:space="preserve"
     transform="scale(0.9983281,1.0016747)"
     id="dp_text015">p </text>
  <text
     style="font-weight:700;font-size:12.98035526px;font-family:Arial;fill:#1976d2"
     y="83.472672"
     x="76.059937"
     font-weight="700"
     font-size="13"
     xml:space="preserve"
     transform="scale(0.99848886,1.0015134)"
     id="dp_text016">r </text>
  <g
     id="dp_group052"
     transform="translate(-109.705,-284.528)">
    <path
       style="fill:none;fill-rule:evenodd;stroke:#bbbbbb;stroke-width:0.54533303"
       inkscape:connector-curvature="0"
       d="m 212.649,389.656 0,4.915"
       id="dp_path053" />
    <path
       style="fill:#bbbbbb;fill-rule:evenodd;stroke:#bbbbbb;stroke-width:0.54533303"
       inkscape:connector-curvature="0"
       d="m 212.649,369.568 c 5.535,0 10.022,4.497 10.022,10.044 0,5.547 -4.487,10.044 -10.022,10.044 -5.534,0 -10.021,-4.497 -10.021,-10.044 0,-5.547 4.487,-10.044 10.021,-10.044 z"
       id="dp_path054" />
    <path
       style="fill:none;fill-rule:evenodd;stroke:#bbbbbb;stroke-width:0.54533303"
       inkscape:connector-curvature="0"
       d="m 212.649,364.655 0,7.781"
       id="dp_path055" />
  </g>
  <g
     id="dp_group056"
     transform="translate(-109.705,-284.528)">
    <g
       id="dp_group057">
      <path
         style="fill:#e03237;fill-rule:evenodd"
         inkscape:connector-curvature="0"
         d="m 203.805,382.057 0.418,0.906 0.834,1.81 3.483,-4.349 -5.569,-0.177 z"
         id="dp_path058" />
      <path
         style="fill:#e03237"
         inkscape:connector-curvature="0"
         d="m 219.436,372.083 0.191,-0.203 0.186,-0.211 0.178,-0.214 0.169,-0.216 0.157,-0.22 0.152,-0.223 0.142,-0.225 0.134,-0.226 0.127,-0.228 0.117,-0.23 0.11,-0.232 0.102,-0.232 0.098,-0.234 0.086,-0.234 0.083,-0.235 0.075,-0.237 0.068,-0.235 0.064,-0.236 0.056,-0.235 0.05,-0.233 0.047,-0.236 0.04,-0.233 0.037,-0.232 0.03,-0.234 0.026,-0.228 0.023,-0.229 0.017,-0.225 0.016,-0.227 0.01,-0.223 0.008,-0.221 0.005,-0.433 -0.004,-0.328 -0.015,-0.328 -0.024,-0.324 -0.032,-0.327 -0.044,-0.325 -0.05,-0.32 -0.06,-0.323 -0.071,-0.32 -0.079,-0.32 -0.088,-0.317 -0.094,-0.311 -0.952,0.293 0.092,0.295 0.08,0.291 0.07,0.293 0.066,0.293 0.054,0.294 0.048,0.296 0.039,0.296 0.029,0.294 0.022,0.3 0.014,0.299 0.004,0.299 -0.005,0.409 -0.008,0.205 -0.009,0.21 -0.014,0.208 -0.017,0.212 -0.02,0.21 -0.024,0.212 -0.029,0.212 -0.032,0.214 -0.038,0.214 -0.041,0.212 -0.048,0.215 -0.051,0.213 -0.056,0.212 -0.062,0.214 -0.067,0.21 -0.075,0.211 -0.078,0.211 -0.084,0.206 -0.092,0.208 -0.099,0.206 -0.104,0.204 -0.111,0.201 -0.118,0.201 -0.126,0.199 -0.133,0.196 -0.141,0.193 -0.148,0.192 -0.156,0.188 -0.166,0.187 -0.18,0.187 z m 0.953,-13.287 -0.169,-0.295 -0.183,-0.301 -0.189,-0.297 -0.197,-0.296 -0.206,-0.295 -0.213,-0.293 -0.221,-0.291 -0.228,-0.288 -0.236,-0.288 -0.246,-0.285 -0.25,-0.283 -0.26,-0.281 -0.266,-0.28 -0.273,-0.278 -0.281,-0.276 -0.288,-0.273 -0.295,-0.271 -0.304,-0.27 -0.308,-0.268 -0.317,-0.266 -0.323,-0.264 -0.332,-0.261 -0.335,-0.259 -0.345,-0.257 -0.349,-0.255 -0.358,-0.254 -0.364,-0.251 -0.368,-0.247 -0.554,0.827 0.362,0.244 0.354,0.243 0.346,0.246 0.342,0.247 0.332,0.249 0.326,0.251 0.319,0.253 0.312,0.256 0.307,0.255 0.297,0.257 0.291,0.26 0.284,0.263 0.277,0.263 0.268,0.262 0.263,0.267 0.254,0.267 0.247,0.268 0.24,0.269 0.232,0.272 0.223,0.272 0.217,0.275 0.211,0.274 0.2,0.275 0.194,0.279 0.184,0.277 0.179,0.281 0.169,0.28 0.164,0.287 z m -9.766,-9 -0.298,-0.171 -0.414,-0.232 -0.42,-0.23 -0.428,-0.23 -0.432,-0.226 -0.44,-0.223 -0.444,-0.221 -0.451,-0.219 -0.456,-0.217 -0.463,-0.214 -0.466,-0.212 -0.474,-0.208 -0.48,-0.206 -0.484,-0.206 -0.49,-0.201 -0.495,-0.199 -0.501,-0.196 -0.507,-0.193 -0.511,-0.191 -0.516,-0.188 -0.521,-0.185 -0.524,-0.184 -0.328,0.941 0.521,0.182 0.516,0.182 0.508,0.186 0.506,0.188 0.498,0.19 0.494,0.194 0.486,0.196 0.483,0.198 0.476,0.2 0.472,0.204 0.465,0.206 0.459,0.206 0.455,0.211 0.448,0.212 0.442,0.216 0.436,0.216 0.43,0.22 0.424,0.221 0.417,0.224 0.412,0.226 0.407,0.229 0.292,0.168 z m -12.507,-5.296 -0.42,-0.128 -0.556,-0.167 -0.561,-0.164 -0.566,-0.158 -0.57,-0.159 -0.575,-0.155 -0.579,-0.152 -0.585,-0.146 -0.588,-0.147 -0.592,-0.141 -0.597,-0.14 -0.602,-0.136 -0.604,-0.135 -0.61,-0.129 -0.614,-0.127 -0.617,-0.124 -0.623,-0.121 -0.624,-0.116 -0.626,-0.116 -0.179,0.981 0.627,0.113 0.618,0.116 0.615,0.119 0.612,0.124 0.608,0.124 0.603,0.129 0.598,0.132 0.596,0.136 0.59,0.138 0.586,0.141 0.583,0.144 0.577,0.147 0.574,0.149 0.566,0.152 0.566,0.156 0.557,0.159 0.556,0.161 0.548,0.164 0.415,0.128 z m -13.667,-3.085 -0.648,-0.096 -0.65,-0.095 -0.655,-0.091 -0.659,-0.086 -0.661,-0.084 -0.667,-0.082 -0.668,-0.076 -0.67,-0.073 -0.675,-0.071 -0.677,-0.066 -0.682,-0.063 -0.684,-0.059 -0.685,-0.054 -0.689,-0.052 -0.695,-0.048 -0.692,-0.046 -0.064,0.995 0.692,0.043 0.687,0.048 0.684,0.052 0.682,0.054 0.676,0.059 0.676,0.063 0.672,0.064 0.67,0.07 0.665,0.074 0.663,0.076 0.658,0.078 0.656,0.084 0.654,0.087 0.649,0.091 0.645,0.092 0.643,0.098 z m -13.156,-1.264 -0.41,-0.018 -0.71,-0.025 -0.71,-0.021 -0.712,-0.018 -0.716,-0.014 -0.718,-0.01 -0.72,-0.006 -0.722,-0.002 -0.723,0.002 -0.72,0.006 -0.717,0.01 -0.716,0.014 -0.712,0.018 -0.711,0.021 -0.709,0.025 -0.706,0.03 0.043,0.994 0.7,-0.029 0.704,-0.025 0.705,-0.022 0.707,-0.017 0.711,-0.015 0.712,-0.009 0.714,-0.007 0.718,-0.001 0.717,0.001 0.715,0.007 0.712,0.009 0.71,0.015 0.707,0.017 0.705,0.022 0.704,0.025 0.406,0.017 z m -13.53,0.141 -0.398,0.027 -0.694,0.048 -0.69,0.052 -0.685,0.054 -0.684,0.059 -0.681,0.063 -0.678,0.066 -0.674,0.071 -0.671,0.073 -0.668,0.076 -0.667,0.082 -0.661,0.084 -0.659,0.086 -0.654,0.091 -0.651,0.095 -0.648,0.097 -0.644,0.1 0.155,0.984 0.638,-0.1 0.643,-0.097 0.645,-0.092 0.65,-0.091 0.653,-0.087 0.656,-0.084 0.659,-0.078 0.662,-0.076 0.666,-0.074 0.669,-0.07 0.672,-0.064 0.676,-0.063 0.676,-0.059 0.683,-0.054 0.684,-0.052 0.686,-0.048 0.398,-0.024 z m -13.65,1.663 -0.621,0.116 -0.623,0.121 -0.617,0.124 -0.613,0.127 -0.611,0.129 -0.604,0.135 -0.601,0.136 -0.598,0.14 -0.592,0.141 -0.588,0.147 -0.585,0.146 -0.579,0.152 -0.574,0.155 -0.571,0.159 -0.565,0.158 -0.562,0.164 -0.556,0.167 -0.55,0.168 0.293,0.952 0.545,-0.168 0.548,-0.164 0.556,-0.161 0.558,-0.159 0.565,-0.156 0.567,-0.152 0.573,-0.149 0.577,-0.147 0.583,-0.144 0.587,-0.141 0.589,-0.138 0.596,-0.136 0.599,-0.132 0.602,-0.129 0.608,-0.124 0.612,-0.124 0.615,-0.119 0.621,-0.116 z m -12.901,3.334 -0.395,0.139 -0.521,0.185 -0.516,0.188 -0.511,0.191 -0.506,0.193 -0.502,0.196 -0.494,0.199 -0.491,0.201 -0.484,0.206 -0.48,0.206 -0.473,0.208 -0.467,0.212 -0.463,0.214 -0.456,0.217 -0.45,0.219 -0.444,0.221 -0.44,0.223 -0.432,0.226 -0.428,0.23 -0.42,0.23 -0.415,0.232 -0.407,0.234 0.496,0.864 0.402,-0.231 0.406,-0.229 0.412,-0.226 0.418,-0.224 0.424,-0.221 0.429,-0.22 0.436,-0.216 0.443,-0.216 0.448,-0.212 0.454,-0.211 0.459,-0.206 0.465,-0.206 0.472,-0.204 0.476,-0.2 0.483,-0.198 0.487,-0.196 0.493,-0.194 0.499,-0.19 0.505,-0.188 0.508,-0.186 0.516,-0.182 0.392,-0.136 z m -12.253,5.855 -0.263,0.176 -0.364,0.251 -0.357,0.254 -0.35,0.255 -0.345,0.257 -0.335,0.259 -0.332,0.261 -0.322,0.264 -0.318,0.266 -0.308,0.268 -0.304,0.27 -0.294,0.271 -0.288,0.273 -0.282,0.276 -0.273,0.278 -0.265,0.28 -0.26,0.281 -0.251,0.283 -0.245,0.285 -0.236,0.288 -0.228,0.288 -0.222,0.291 -0.213,0.293 -0.205,0.295 -0.198,0.296 -0.189,0.297 -0.183,0.301 -0.172,0.3 -0.162,0.298 0.874,0.477 0.158,-0.289 0.161,-0.282 0.169,-0.28 0.179,-0.281 0.184,-0.277 0.195,-0.279 0.2,-0.275 0.21,-0.274 0.218,-0.275 0.222,-0.272 0.232,-0.272 0.24,-0.269 0.247,-0.268 0.255,-0.267 0.262,-0.267 0.268,-0.262 0.278,-0.263 0.284,-0.263 0.29,-0.26 0.298,-0.257 0.306,-0.255 0.312,-0.256 0.319,-0.253 0.327,-0.251 0.332,-0.249 0.341,-0.247 0.347,-0.246 0.353,-0.243 0.257,-0.173 z m -8.786,10.452 -0.085,0.312 -0.079,0.32 -0.07,0.32 -0.06,0.323 -0.051,0.32 -0.044,0.325 -0.032,0.327 -0.024,0.324 -0.015,0.328 -0.004,0.328 0.004,0.328 0.015,0.328 0.024,0.324 0.032,0.326 0.044,0.326 0.051,0.321 0.06,0.323 0.07,0.32 0.079,0.318 0.088,0.318 0.097,0.317 0.106,0.313 0.113,0.314 0.124,0.313 0.131,0.308 0.14,0.308 0.149,0.307 0.156,0.305 0.165,0.304 0.172,0.301 0.183,0.3 0.189,0.298 0.198,0.297 0.202,0.292 0.816,-0.573 -0.197,-0.279 -0.184,-0.279 -0.179,-0.281 -0.169,-0.279 -0.161,-0.282 -0.155,-0.283 -0.145,-0.284 -0.139,-0.285 -0.129,-0.287 -0.123,-0.287 -0.113,-0.286 -0.106,-0.29 -0.097,-0.289 -0.089,-0.291 -0.08,-0.29 -0.071,-0.292 -0.065,-0.294 -0.055,-0.293 -0.048,-0.297 -0.039,-0.296 -0.029,-0.295 -0.021,-0.3 -0.015,-0.299 -0.004,-0.298 0.004,-0.299 0.015,-0.299 0.021,-0.3 0.029,-0.294 0.039,-0.296 0.048,-0.296 0.055,-0.294 0.065,-0.293 0.071,-0.293 0.082,-0.296 z m 3.787,12.752 0.264,0.276 0.273,0.276 0.282,0.276 0.288,0.275 0.296,0.272 0.302,0.268 0.308,0.268 0.318,0.266 0.322,0.263 0.332,0.261 0.335,0.259 0.344,0.257 0.351,0.256 0.358,0.254 0.363,0.249 0.371,0.251 0.377,0.246 0.384,0.244 0.389,0.242 0.395,0.24 0.403,0.237 0.408,0.236 0.416,0.233 0.421,0.231 0.427,0.228 0.429,0.225 0.461,-0.882 -0.426,-0.223 -0.419,-0.223 -0.411,-0.225 -0.405,-0.228 -0.4,-0.231 -0.392,-0.232 -0.387,-0.234 -0.381,-0.236 -0.373,-0.239 -0.367,-0.239 -0.36,-0.242 -0.355,-0.244 -0.345,-0.246 -0.34,-0.248 -0.333,-0.249 -0.327,-0.251 -0.319,-0.253 -0.312,-0.255 -0.306,-0.256 -0.298,-0.257 -0.292,-0.26 -0.282,-0.261 -0.278,-0.262 -0.268,-0.265 -0.262,-0.265 -0.256,-0.271 z m 11.413,7.687 0.466,0.209 0.473,0.209 0.48,0.206 0.484,0.205 0.491,0.201 0.494,0.199 0.502,0.196 0.506,0.193 0.511,0.191 0.516,0.189 0.523,0.186 0.525,0.182 0.532,0.18 0.537,0.178 0.542,0.174 0.548,0.172 0.55,0.168 0.556,0.167 0.562,0.164 0.562,0.16 0.272,-0.96 -0.56,-0.157 -0.556,-0.162 -0.548,-0.164 -0.545,-0.168 -0.54,-0.169 -0.536,-0.172 -0.529,-0.175 -0.524,-0.177 -0.52,-0.18 -0.515,-0.183 -0.508,-0.186 -0.505,-0.188 -0.499,-0.191 -0.493,-0.193 -0.487,-0.196 -0.483,-0.199 -0.476,-0.2 -0.472,-0.203 -0.465,-0.206 -0.46,-0.21 z m 12.69,4.346 0.57,0.14 0.592,0.143 0.598,0.14 0.601,0.135 0.604,0.134 0.611,0.13 0.613,0.128 0.617,0.122 0.622,0.122 0.625,0.117 0.629,0.115 0.634,0.11 0.636,0.107 0.641,0.105 0.644,0.1 0.648,0.098 0.651,0.094 0.653,0.091 0.136,-0.987 -0.651,-0.09 -0.645,-0.092 -0.643,-0.098 -0.638,-0.1 -0.634,-0.102 -0.63,-0.107 -0.628,-0.111 -0.624,-0.112 -0.618,-0.117 -0.616,-0.119 -0.612,-0.122 -0.608,-0.126 -0.602,-0.129 -0.599,-0.132 -0.596,-0.135 -0.589,-0.137 -0.587,-0.143 -0.568,-0.14 z m 13.574,2.43 0.271,0.03 0.671,0.072 0.674,0.071 0.678,0.067 0.681,0.062 0.683,0.059 0.686,0.056 0.691,0.051 0.693,0.048 0.695,0.045 0.697,0.041 0.702,0.036 0.702,0.034 0.706,0.029 0.709,0.025 0.711,0.022 0.71,0.018 0.024,-0.997 -0.708,-0.016 -0.705,-0.021 -0.704,-0.026 -0.7,-0.029 -0.697,-0.033 -0.696,-0.036 -0.692,-0.042 -0.69,-0.042 -0.688,-0.048 -0.682,-0.051 -0.682,-0.056 -0.677,-0.059 -0.676,-0.062 -0.672,-0.064 -0.669,-0.071 -0.666,-0.072 -0.268,-0.031 z m 13.763,0.797 0.475,0 0.804,-0.003 0.801,-0.006 0.8,-0.014 0.797,-0.016 0.792,-0.022 0.791,-0.027 0.788,-0.031 0.784,-0.037 0.78,-0.04 0.779,-0.045 0.773,-0.052 0.771,-0.055 0.766,-0.059 0.763,-0.064 -0.083,-0.992 -0.757,0.064 -0.761,0.059 -0.766,0.055 -0.768,0.049 -0.77,0.045 -0.775,0.04 -0.779,0.038 -0.78,0.03 -0.785,0.027 -0.787,0.023 -0.789,0.016 -0.795,0.013 -0.796,0.007 -0.798,0.002 -0.472,-0.002 z m 13.859,-0.703 0.622,-0.069 0.746,-0.085 0.738,-0.092 0.738,-0.095 0.73,-0.099 0.728,-0.104 0.724,-0.106 0.718,-0.112 0.714,-0.116 0.71,-0.12 0.704,-0.124 0.701,-0.128 0.695,-0.134 0.69,-0.134 0.687,-0.142 0.679,-0.141 -0.206,-0.976 -0.676,0.144 -0.678,0.139 -0.683,0.134 -0.689,0.131 -0.694,0.128 -0.698,0.121 -0.704,0.12 -0.707,0.114 -0.712,0.112 -0.716,0.106 -0.723,0.102 -0.725,0.098 -0.729,0.095 -0.734,0.089 -0.737,0.086 -0.623,0.066 z m 13.67,-2.338 0.326,-0.08 0.653,-0.163 0.648,-0.167 0.644,-0.17 0.637,-0.174 0.631,-0.178 0.627,-0.182 0.62,-0.185 0.614,-0.189 0.607,-0.191 0.603,-0.195 0.596,-0.2 0.589,-0.201 0.584,-0.208 0.576,-0.209 0.571,-0.212 0.565,-0.215 0.555,-0.217 -0.366,-0.928 -0.549,0.217 -0.555,0.212 -0.562,0.209 -0.571,0.207 -0.573,0.203 -0.582,0.198 -0.588,0.198 -0.594,0.192 -0.602,0.19 -0.606,0.187 -0.612,0.183 -0.619,0.178 -0.625,0.176 -0.63,0.174 -0.636,0.168 -0.64,0.164 -0.648,0.162 -0.322,0.078 z"
         id="dp_path059" />
    </g>
  </g>
  <g
     id="dp_group060"
     transform="translate(-109.705,-284.528)">
    <g
       id="dp_group061">
      <path
         style="fill:#1976d2;fill-rule:evenodd"
         inkscape:connector-curvature="0"
         d="m 198.919,375.188 -0.254,0.892 -0.508,1.784 5.095,-0.961 -3.825,-3.499 z"
         id="dp_path062" />
      <path
         style="fill:#1976d2"
         inkscape:connector-curvature="0"
         d="m 163.348,366.041 35.317,10.04 0.254,-0.893 -35.318,-10.04 z"
         id="dp_path063" />
    </g>
  </g>
  <path
     style="fill:#e03237;fill-rule:evenodd"
     inkscape:connector-curvature="0"
     d="m 140.032,89.496 c -0.046,-0.185 -0.106,-0.368 -0.181,-0.548 -0.073,-0.18 -0.171,-0.341 -0.291,-0.48 -0.12,-0.139 -0.261,-0.252 -0.424,-0.34 -0.161,-0.088 -0.353,-0.133 -0.576,-0.133 -0.221,0 -0.433,0.045 -0.637,0.133 -0.204,0.088 -0.399,0.201 -0.583,0.34 -0.185,0.139 -0.361,0.3 -0.528,0.48 -0.166,0.18 -0.318,0.363 -0.457,0.548 -0.417,0.548 -0.751,1.116 -1,1.704 -0.249,0.589 -0.448,1.184 -0.596,1.787 -0.157,0.602 -0.257,1.198 -0.299,1.786 -0.041,0.588 0.007,1.156 0.146,1.703 0.046,0.187 0.109,0.367 0.188,0.543 0.078,0.176 0.176,0.333 0.29,0.472 0.116,0.14 0.255,0.253 0.418,0.341 0.161,0.088 0.353,0.132 0.576,0.132 0.221,0 0.434,-0.044 0.637,-0.132 0.204,-0.088 0.4,-0.201 0.591,-0.341 0.189,-0.139 0.366,-0.296 0.533,-0.472 0.167,-0.176 0.32,-0.356 0.459,-0.543 0.406,-0.547 0.736,-1.115 0.985,-1.703 0.249,-0.588 0.453,-1.184 0.611,-1.786 0.148,-0.603 0.242,-1.198 0.284,-1.787 0.042,-0.588 -0.007,-1.156 -0.146,-1.704 z m -0.777,0.111 c 0.047,0.501 0.019,1.017 -0.083,1.548 -0.102,0.529 -0.218,1.068 -0.348,1.616 l -2.9,0 c 0.13,-0.548 0.278,-1.087 0.444,-1.616 0.167,-0.531 0.399,-1.047 0.695,-1.548 0.212,-0.352 0.432,-0.66 0.659,-0.92 0.226,-0.26 0.482,-0.39 0.77,-0.39 0.139,0 0.255,0.034 0.347,0.104 0.092,0.07 0.167,0.164 0.221,0.286 0.056,0.121 0.098,0.26 0.126,0.417 0.028,0.16 0.05,0.327 0.069,0.503 z m -0.541,3.593 c -0.13,0.547 -0.278,1.083 -0.444,1.605 -0.167,0.524 -0.398,1.042 -0.695,1.551 -0.203,0.351 -0.42,0.657 -0.652,0.917 -0.231,0.26 -0.485,0.39 -0.763,0.39 -0.138,0 -0.256,-0.035 -0.354,-0.104 -0.096,-0.07 -0.174,-0.166 -0.228,-0.286 -0.056,-0.12 -0.1,-0.26 -0.132,-0.417 -0.032,-0.157 -0.054,-0.324 -0.063,-0.5 -0.037,-0.509 -0.007,-1.027 0.091,-1.551 0.097,-0.522 0.21,-1.058 0.34,-1.605 z"
     id="dp_path064" />
  <path
     style="fill:none;fill-rule:evenodd;stroke:#e03237;stroke-width:0.92799997;stroke-dasharray:11.1267, 2.2272"
     inkscape:connector-curvature="0"
     d="m 53.791,38.001 0,84.99"
     id="dp_path065" />
  <path
     style="fill:none;fill-rule:evenodd;stroke:#bbbbbb;stroke-width:0.92799997"
     inkscape:connector-curvature="0"
     d="m 53.712,62.615 15.295,4.509 0,17.627"
     id="dp_path066" />
  <text
     style="font-weight:700;font-size:12.97826576px;font-family:Arial;fill:#bbbbbb"
     y="31.96347"
     x="50.632652"
     font-weight="700"
     font-size="13"
     xml:space="preserve"
     transform="scale(0.9983281,1.0016747)"
     id="dp_text017">L </text>
  <g
     id="dp_group068"
     transform="translate(-109.705,-284.528)">
    <g
       id="dp_group069">
      <path
         style="fill:#bbbbbb;fill-rule:evenodd"
         inkscape:connector-curvature="0"
         d="m 163.032,324.392 0.928,0 1.855,0 -2.319,-4.637 -2.319,4.637 z"
         id="dp_path070" />
      <path
         style="fill:#bbbbbb"
         inkscape:connector-curvature="0"
         d="m 163.96,365.679 0,-41.287 -0.928,0 0,41.287 z"
         id="dp_path071" />
    </g>
  </g>
  <text
     style="font-weight:400;font-size:12.97607136px;font-family:Arial;fill:#bbbbbb"
     y="12.535883"
     x="20.960583"
     font-weight="400"
     font-size="13"
     xml:space="preserve"
     transform="scale(0.99815931,1.0018441)"
     id="dp_text018">|</text>
  <text
     style="font-weight:700;font-size:12.9796648px;font-family:Arial;fill:#bbbbbb"
     y="12.539355"
     x="24.207712"
     font-weight="700"
     font-size="13"
     xml:space="preserve"
     transform="scale(0.99843578,1.0015667)"
     id="dp_text019">L</text>
  <text
     style="font-weight:400;font-size:12.9817543px;font-family:Arial;fill:#bbbbbb"
     y="12.541373"
     x="31.883129"
     font-weight="400"
     font-size="13"
     xml:space="preserve"
     transform="scale(0.99859652,1.0014055)"
     id="dp_text020">| = </text>
  <text
     style="font-weight:400;font-size:12.97607136px;font-family:Arial;fill:#1976d2"
     y="12.535883"
     x="49.442745"
     font-weight="400"
     font-size="13"
     xml:space="preserve"
     transform="scale(0.99815931,1.0018441)"
     id="dp_text021">|</text>
  <text
     style="font-weight:700;font-size:12.98405266px;font-family:Arial;fill:#1976d2"
     y="12.543593"
     x="52.664234"
     font-weight="700"
     font-size="13"
     xml:space="preserve"
     transform="scale(0.99877325,1.0012283)"
     id="dp_text022">r</text>
  <text
     style="font-weight:400;font-size:12.97606468px;font-family:Arial;fill:#1976d2"
     y="12.535876"
     x="57.595215"
     font-weight="400"
     font-size="13"
     xml:space="preserve"
     transform="scale(0.99815881,1.0018446)"
     id="dp_text023">||</text>
  <text
     style="font-weight:700;font-size:12.9796648px;font-family:Arial;fill:#1976d2"
     y="12.539355"
     x="64.085327"
     font-weight="700"
     font-size="13"
     xml:space="preserve"
     transform="scale(0.99843578,1.0015667)"
     id="dp_text024">p</text>
  <text
     style="font-weight:400;font-size:12.97607136px;font-family:Arial;fill:#1976d2"
     y="12.535883"
     x="71.786545"
     font-weight="400"
     font-size="13"
     xml:space="preserve"
     transform="scale(0.99815931,1.0018441)"
     id="dp_text025">|</text>
  <text
     style="font-weight:400;font-size:12.98002338px;font-family:Arial;fill:#bbbbbb"
     y="12.539701"
     x="75.017502"
     font-weight="400"
     font-size="13"
     xml:space="preserve"
     transform="scale(0.99846332,1.001539)"
     id="dp_text026">sin</text>
  <text
     style="font-style:italic;font-weight:400;font-size:13.97313595px;font-family:'Euclid Symbol';fill:#fdbf16"
     y="12.534902"
     x="91.085442"
     font-style="italic"
     font-weight="400"
     font-size="14"
     xml:space="preserve"
     transform="scale(0.99808116,1.0019225)"
     id="dp_text027" />
  <text
     style="font-weight:700;font-size:12.97766018px;font-family:Arial;fill:#1976d2"
     y="26.912672"
     x="20.958015"
     font-weight="700"
     font-size="13"
     xml:space="preserve"
     transform="scale(0.99828152,1.0017214)"
     id="dp_text028" />
  <path
     style="fill:#e03237;fill-rule:evenodd"
     inkscape:connector-curvature="0"
     d="m 150.574,29.161 c -0.166,-0.094 -0.339,-0.178 -0.519,-0.249 -0.181,-0.073 -0.364,-0.113 -0.547,-0.123 -0.184,-0.009 -0.364,0.014 -0.54,0.07 -0.174,0.054 -0.34,0.162 -0.493,0.324 -0.155,0.16 -0.271,0.344 -0.348,0.552 -0.079,0.208 -0.132,0.426 -0.16,0.657 -0.028,0.231 -0.036,0.468 -0.021,0.713 0.014,0.246 0.04,0.483 0.077,0.711 0.104,0.68 0.281,1.316 0.531,1.904 0.249,0.589 0.538,1.145 0.869,1.671 0.324,0.53 0.683,1.016 1.076,1.454 0.395,0.438 0.836,0.798 1.325,1.076 0.166,0.096 0.339,0.176 0.519,0.24 0.181,0.066 0.363,0.106 0.543,0.119 0.18,0.013 0.358,-0.008 0.533,-0.064 0.176,-0.056 0.341,-0.164 0.495,-0.324 0.154,-0.161 0.27,-0.345 0.348,-0.553 0.078,-0.208 0.133,-0.43 0.164,-0.663 0.032,-0.232 0.042,-0.471 0.03,-0.713 -0.009,-0.242 -0.033,-0.478 -0.07,-0.706 -0.111,-0.674 -0.291,-1.305 -0.54,-1.893 -0.25,-0.588 -0.538,-1.149 -0.86,-1.68 -0.331,-0.525 -0.692,-1.007 -1.087,-1.445 -0.395,-0.439 -0.836,-0.798 -1.325,-1.078 z m -0.46,0.639 c 0.393,0.313 0.744,0.692 1.053,1.133 0.311,0.44 0.617,0.898 0.923,1.372 l -2.014,2.094 c -0.304,-0.474 -0.588,-0.955 -0.853,-1.443 -0.265,-0.488 -0.476,-1.012 -0.631,-1.575 -0.105,-0.397 -0.173,-0.769 -0.202,-1.113 -0.031,-0.344 0.054,-0.62 0.253,-0.827 0.096,-0.1 0.201,-0.16 0.316,-0.178 0.113,-0.018 0.233,-0.006 0.36,0.038 0.124,0.044 0.253,0.111 0.385,0.2 0.134,0.09 0.27,0.19 0.41,0.299 z m 2.206,2.883 c 0.303,0.473 0.586,0.952 0.846,1.434 0.26,0.483 0.472,1.01 0.633,1.576 0.111,0.391 0.18,0.762 0.205,1.108 0.027,0.347 -0.056,0.622 -0.249,0.822 -0.096,0.1 -0.204,0.161 -0.32,0.182 -0.117,0.022 -0.239,0.011 -0.364,-0.033 -0.125,-0.043 -0.256,-0.108 -0.391,-0.193 -0.137,-0.087 -0.27,-0.187 -0.402,-0.302 -0.394,-0.328 -0.743,-0.708 -1.052,-1.141 -0.308,-0.433 -0.615,-0.887 -0.918,-1.36 z"
     id="dp_path083" />
  <path
     style="fill:#e03237;fill-rule:evenodd"
     inkscape:connector-curvature="0"
     d="M 97.01,4.236 C 96.963,4.051 96.903,3.868 96.828,3.688 96.755,3.507 96.658,3.347 96.538,3.208 96.418,3.069 96.276,2.955 96.114,2.867 95.952,2.779 95.76,2.735 95.538,2.735 c -0.222,0 -0.435,0.044 -0.638,0.132 -0.204,0.088 -0.398,0.202 -0.582,0.341 -0.186,0.139 -0.362,0.299 -0.528,0.48 -0.167,0.18 -0.319,0.363 -0.458,0.548 -0.417,0.548 -0.75,1.116 -1,1.704 -0.249,0.589 -0.449,1.184 -0.596,1.787 -0.157,0.602 -0.257,1.198 -0.298,1.786 -0.043,0.588 0.006,1.156 0.145,1.703 0.047,0.187 0.108,0.367 0.188,0.543 0.079,0.176 0.175,0.333 0.291,0.472 0.116,0.14 0.254,0.253 0.417,0.341 0.161,0.088 0.353,0.132 0.575,0.132 0.222,0 0.434,-0.044 0.638,-0.132 0.204,-0.088 0.4,-0.201 0.59,-0.341 0.19,-0.139 0.368,-0.296 0.534,-0.472 0.167,-0.176 0.319,-0.356 0.459,-0.543 C 95.682,10.669 96.01,10.101 96.26,9.513 96.51,8.925 96.714,8.329 96.87,7.727 97.019,7.124 97.114,6.529 97.155,5.94 97.196,5.352 97.148,4.784 97.01,4.236 Z m -0.778,0.111 c 0.047,0.501 0.019,1.017 -0.084,1.548 -0.101,0.529 -0.217,1.068 -0.346,1.616 l -2.9,0 c 0.129,-0.548 0.277,-1.087 0.444,-1.616 0.166,-0.531 0.397,-1.047 0.693,-1.548 0.213,-0.352 0.433,-0.66 0.66,-0.92 0.227,-0.26 0.483,-0.39 0.769,-0.39 0.14,0 0.255,0.034 0.347,0.104 0.093,0.07 0.168,0.164 0.223,0.286 0.056,0.121 0.097,0.26 0.125,0.417 0.027,0.16 0.051,0.327 0.069,0.503 z M 95.691,7.94 c -0.129,0.547 -0.277,1.083 -0.444,1.605 -0.167,0.524 -0.399,1.042 -0.695,1.551 -0.202,0.351 -0.42,0.657 -0.652,0.917 -0.23,0.26 -0.485,0.39 -0.762,0.39 -0.139,0 -0.258,-0.035 -0.355,-0.104 -0.097,-0.071 -0.173,-0.166 -0.228,-0.286 -0.056,-0.121 -0.1,-0.26 -0.132,-0.417 -0.033,-0.157 -0.053,-0.324 -0.063,-0.5 -0.037,-0.509 -0.006,-1.027 0.091,-1.551 0.097,-0.522 0.211,-1.058 0.34,-1.605 z"
     id="dp_path084" />
  <text
     style="font-weight:400;font-size:12.97605801px;font-family:Arial;fill:#1976d2"
     y="63.757755"
     x="162.41782"
     font-weight="400"
     font-size="13"
     xml:space="preserve"
     transform="matrix(0.95075499,0.30394978,-0.30378347,0.95467822,0,0)"
     id="dp_text029">|</text>
  <text
     style="font-weight:700;font-size:12.97852707px;font-family:Arial;fill:#1976d2"
     y="63.769608"
     x="165.64001"
     font-weight="700"
     font-size="13"
     xml:space="preserve"
     transform="matrix(0.95093572,0.30400815,-0.30372568,0.9544966,0,0)"
     id="dp_text030">p</text>
  <text
     style="font-weight:400;font-size:12.97605801px;font-family:Arial;fill:#1976d2"
     y="63.757614"
     x="173.35364"
     font-weight="400"
     font-size="13"
     xml:space="preserve"
     transform="matrix(0.95075499,0.30394978,-0.30378347,0.95467822,0,0)"
     id="dp_text031">|</text>
  <text
     style="font-weight:400;font-size:12.98358345px;font-family:Arial;fill:#bbbbbb"
     y="63.794849"
     x="176.50558"
     font-weight="400"
     font-size="13"
     xml:space="preserve"
     transform="matrix(0.95130634,0.30412606,-0.30360741,0.9541249,0,0)"
     id="dp_text032">cos</text>
  <text
     style="font-weight:700;font-size:12.97765827px;font-family:Arial;fill:#1976d2"
     y="63.76543"
     x="196.10629"
     font-weight="700"
     font-size="13"
     xml:space="preserve"
     transform="matrix(0.95087217,0.30398743,-0.30374602,0.95456051,0,0)"
     id="dp_text033" />
  <path
     style="fill:#e03237;fill-rule:evenodd"
     inkscape:connector-curvature="0"
     d="m 176.727,115.247 c 0.003,-0.191 -0.008,-0.383 -0.032,-0.576 -0.024,-0.195 -0.076,-0.374 -0.156,-0.539 -0.08,-0.167 -0.187,-0.313 -0.32,-0.44 -0.133,-0.128 -0.307,-0.22 -0.521,-0.279 -0.215,-0.058 -0.432,-0.07 -0.651,-0.038 -0.22,0.03 -0.437,0.089 -0.652,0.176 -0.215,0.085 -0.427,0.194 -0.635,0.325 -0.206,0.129 -0.401,0.267 -0.584,0.409 -0.544,0.42 -1.013,0.882 -1.408,1.384 -0.394,0.503 -0.741,1.026 -1.041,1.568 -0.308,0.542 -0.559,1.091 -0.752,1.647 -0.193,0.557 -0.295,1.119 -0.303,1.684 -0.004,0.191 0.01,0.381 0.04,0.571 0.03,0.19 0.083,0.368 0.158,0.532 0.076,0.165 0.18,0.312 0.313,0.438 0.133,0.127 0.308,0.22 0.521,0.279 0.215,0.057 0.432,0.071 0.651,0.039 0.22,-0.032 0.44,-0.09 0.659,-0.175 0.218,-0.084 0.432,-0.191 0.638,-0.317 0.207,-0.126 0.402,-0.26 0.583,-0.403 0.536,-0.421 1.001,-0.884 1.395,-1.387 0.394,-0.502 0.745,-1.024 1.054,-1.565 0.3,-0.543 0.547,-1.092 0.74,-1.649 0.194,-0.559 0.294,-1.119 0.303,-1.684 z m -0.78,-0.096 c -0.085,0.496 -0.247,0.986 -0.483,1.472 -0.236,0.484 -0.488,0.974 -0.754,1.47 l -2.8,-0.758 c 0.266,-0.496 0.55,-0.978 0.849,-1.446 0.299,-0.468 0.656,-0.905 1.072,-1.312 0.297,-0.285 0.589,-0.524 0.876,-0.714 0.287,-0.194 0.568,-0.251 0.844,-0.176 0.135,0.036 0.237,0.1 0.309,0.19 0.071,0.092 0.118,0.203 0.139,0.335 0.023,0.131 0.027,0.276 0.012,0.436 -0.015,0.16 -0.035,0.327 -0.064,0.503 z m -1.456,3.326 c -0.268,0.495 -0.551,0.974 -0.848,1.435 -0.296,0.461 -0.655,0.9 -1.072,1.316 -0.288,0.285 -0.579,0.524 -0.869,0.713 -0.291,0.191 -0.571,0.25 -0.838,0.178 -0.134,-0.036 -0.24,-0.102 -0.314,-0.194 -0.076,-0.093 -0.126,-0.205 -0.147,-0.334 -0.023,-0.132 -0.029,-0.278 -0.019,-0.438 0.01,-0.161 0.032,-0.326 0.07,-0.5 0.097,-0.501 0.26,-0.992 0.49,-1.473 0.23,-0.479 0.479,-0.967 0.747,-1.46 z"
     id="dp_path090" />
</svg>
